<svg xmlns="http://www.w3.org/2000/svg" viewBox="0 0 234.82 679.27"><defs><style>.cls-1{fill:#9A5B33;}</style></defs><g id="Livello_2" data-name="Livello 2"><g id="Livello_1-2" data-name="Livello 1"><path class="cls-1" d="M53.72,24.26c0-.3-.27-.45-.39-.11a5.1,5.1,0,0,0,1,4.42,19.26,19.26,0,0,1,1.39,2.19c.64,1.33.26,2.34-.37,3.58-.17.33.13,1,.5.61C59.09,31.15,53.77,28,53.72,24.26Z"/><path class="cls-1" d="M51.85,27c-.43-.44-.75.61-.45,1s.34.39.5.59a6.89,6.89,0,0,0,1.86,4.32c.38.39.61-.35.61-.61A7.87,7.87,0,0,0,51.85,27Z"/><path class="cls-1" d="M50.43,29.17c0-.14-.06-.28-.1-.42s-.3-.08-.3.1h0a1.1,1.1,0,0,0-.14-.09c-.39-.23-.42.59-.32.77a8.09,8.09,0,0,0,.53.77,11,11,0,0,0,1,4c.19.38.58.1.64-.2A5.64,5.64,0,0,0,50.43,29.17Z"/><path class="cls-1" d="M59.61,47.87c.28-.41-.15-1.39-.51-.82-.82,1.3-2.49,3.77-4.38,3.16-1.7-.55-1.93-2.9-2.54-4.28-.11-.24-.35,0-.35.18,0,1.76.82,4.56,2.74,5.16v0c.06.24.11.48.17.72.32,1.85.75,3.68,1.09,5.52a27.35,27.35,0,0,0,1.37,5.95c0,.09.09.11.13.1a7.33,7.33,0,0,0,.39.91c.2.4.38-.14.39-.35.08-2.09-.84-4.42-1.32-6.45-.24-1-.5-2-.78-3a19.88,19.88,0,0,0-.93-3.4C57,51.54,58.65,49.24,59.61,47.87Z"/><path class="cls-1" d="M59.41,45.2a.31.31,0,0,0,0-.08c0-.07-.07-.25-.17-.24a2.36,2.36,0,0,0-.68.27,31.42,31.42,0,0,0-2.22-8.56l.14-.05c.42-.15.35-1.2-.17-1a6,6,0,0,0-1.72.85c-.12-.05-.25,0-.33.23a0,0,0,0,0,0,0A3.63,3.63,0,0,0,53.07,38c0,.06,0,.23.08.2l.13-.06a3.26,3.26,0,0,0-.15.44c-.45.25-.91.51-1.34.79,0-.26-.14-.52-.22-.84s-.22-.9-.3-1.36h.08c.1,0,.1-.23,0-.28l-.17-.08,0-.13c-.07-.42-.36-.39-.5-.17a2.23,2.23,0,0,1-1.15-1.88c-.1-1,0-2,0-3.07a5.85,5.85,0,0,0-1.1-3.73,1,1,0,0,0,.07-.29.77.77,0,0,0,.58-.15,2.28,2.28,0,0,0,.68-1.81.6.6,0,0,0-.21-.53,1.41,1.41,0,0,0,.48-.12.23.23,0,0,0,.1-.07c.35.56.83,1.16,1.55.76a1.78,1.78,0,0,0,.69-.84,2,2,0,0,0,.27-1.15,1,1,0,0,0,.85-.82c0-.34-.23-1.16-.71-1.06a.61.61,0,0,0-.33.26,2.56,2.56,0,0,0-.22.35c-.09,0-.18,0-.2.1s0,.06,0,.09H52c-.11,0-.12.26-.05.32a1.45,1.45,0,0,1,.26.43c-.27.42-.29,1-.72,1.32s-.8,0-1.12-.18c0-.29-.09-.58-.31-.55l.06-.14c.07-.11,0-.51-.2-.36s-.75.58-.78,1a.57.57,0,0,0,.27.59c-.48.34-.13,1-.49,1.37a.67.67,0,0,1-.58.13,61.43,61.43,0,0,0-2.51-8.81c-.07-.17-.21.05-.19.15a49.92,49.92,0,0,0,1.65,8.17c-.32,0-.53.45-.55.72a.73.73,0,0,0,.44.78l.06,0a.65.65,0,0,0,.13.49c2.09,1.8,1.38,4.08,1.56,6.51.09,1.2.6,2.38,1.73,2.61.07.53.15,1.06.25,1.58a6.11,6.11,0,0,0,.29,1.08,7.34,7.34,0,0,0-.89.77c-.07.08-.06.32.08.29A7,7,0,0,0,52,40.29l-.68.53a8.35,8.35,0,0,0-1.23,1,8.65,8.65,0,0,1,.1-.89c0-.22-.22-.44-.34-.17A3.47,3.47,0,0,0,49.53,43l-.06,0c-.25.13-.5.24-.76.36,0-.05,0-.08-.09-.06A11,11,0,0,0,47.3,44c-.13-.27-.26-.52-.38-.76s-.37-.2-.51,0a6.73,6.73,0,0,0-2.36.88,27.18,27.18,0,0,0-3.35,1.93c-1.73,1.17-4.08,2.85-4.5,5.06a2.44,2.44,0,0,0,2.7,3c2.55-.25,5.22-2.06,7.09-3.71a6.59,6.59,0,0,0,2-2.57,3.82,3.82,0,0,0-.14-2.47l.52-.43c.43-.34.84-.69,1.24-1a.49.49,0,0,0,.12-.28,3.74,3.74,0,0,0,.36.59.27.27,0,0,0,.28.08,22.63,22.63,0,0,0,4-2.31c.24.19.48.39.7.59a7.79,7.79,0,0,1,1.28,2.12,2.76,2.76,0,0,0,.47,1,1.59,1.59,0,0,0,2.35.28A.75.75,0,0,0,59.41,45.2ZM46.57,48.49A14.55,14.55,0,0,1,43.63,51c-1.27.83-5.28,3.44-6.54,1.35-1.15-1.89,2.51-4.33,3.76-5.19a37,37,0,0,1,5.29-2.68c-.59,1.18-.38,3,.76,3.66Zm5.74-7.1a3.64,3.64,0,0,0-1.06,1.28c-.46.29-.92.53-1.13-.17,0,0,0,0,0,0a11.39,11.39,0,0,0,1.23-.73c.52-.31,1-.61,1.58-.9C52.69,41,52.48,41.23,52.31,41.39Zm5.12,3.51a2.45,2.45,0,0,1-.46-.76,2.25,2.25,0,0,0-.27-1.24l0-.29c0-.15-.14-.2-.23-.14a5.18,5.18,0,0,0-.47-.58.74.74,0,0,0,0-.5l-.16-.23a.59.59,0,0,0,0-.19,3.06,3.06,0,0,1,0-.32c0-.08,0-.27-.13-.24l-.16.08,0,.07-.1-.11a.78.78,0,0,0,0-.55,4.84,4.84,0,0,1-.37-.65,2.64,2.64,0,0,0-.24-.7,2.75,2.75,0,0,1,.06-1.33A10.59,10.59,0,0,1,56,36.73c.27,1.32.59,2.64.89,4,.35,1.49.57,3,1,4.49A1.11,1.11,0,0,1,57.43,44.9Z"/><path class="cls-1" d="M66.77,69.5a.57.57,0,0,0,0-.29c-.87-3.75-2-7.5-3.18-11.15,0-.14-.19-.34-.36-.26l0,0a22.23,22.23,0,0,0-1-5c-.48-2.08-1-4.14-1.59-6.2A117.85,117.85,0,0,0,57,34.75c-.05-.13-.17,0-.15.08.72,4,2.07,7.89,3.12,11.8q.81,3,1.51,6c.24,1,.46,2,.66,3a19.83,19.83,0,0,0,.53,2.43,4.47,4.47,0,0,0-1.23,1.08c-.11.14-.07.55.17.42l.36-.2s0,0,0,0a31.14,31.14,0,0,0,1,5,.69.69,0,0,0-.59-.3,1.27,1.27,0,0,0-.8.44h0c-.08-.07-.13.12-.12.16h0a3.23,3.23,0,0,0-.5.85.76.76,0,0,0,0,.73.28.28,0,0,0,.46,0s0,0,.05,0a2.4,2.4,0,0,0,.16-.27l.12-.17a1.62,1.62,0,0,0,.56.69c.38.24.72,0,.86-.41a2.23,2.23,0,0,0,.08-.72c.07.24.14.48.22.71.48,1.4,1.38,3.9,3.1,4.12C66.79,70.24,66.82,69.79,66.77,69.5Zm-1.77-2a14.23,14.23,0,0,1-1.22-3,31.53,31.53,0,0,0-1.58-5.17,5.75,5.75,0,0,1,.88-.39c.78,3.16,1.71,6.28,2.57,9.41A3.41,3.41,0,0,1,65,67.47Z"/><path class="cls-1" d="M62.4,65.3v0h0C62.33,65.25,62.4,65.31,62.4,65.3Z"/><path class="cls-1" d="M61.36,66.37l0,0C61.32,66.4,61.19,66.52,61.36,66.37Z"/><path class="cls-1" d="M61.44,66.29l0,0,0,0Z"/><path class="cls-1" d="M53.79,70.44h0c.42-.22.86-.39,1.27-.63s.22-1.17-.2-1a7.53,7.53,0,0,0-1.34.91l-.46.38-.05,0a4,4,0,0,0-.69-.07h0c-.06-.19-.24-.26-.37-.16a3.06,3.06,0,0,0,.26-.51.26.26,0,0,0,0-.21.49.49,0,0,0-.14-.48,9.8,9.8,0,0,0-5.24-1.8c-.37,0-.48.62-.3.87a21.8,21.8,0,0,0,8,6.93c-1,1.44-2.47,2.72-4.28,2.67a6.64,6.64,0,0,1-4.08-1.74,6.94,6.94,0,0,1-2.39-3.85c-.38-2.12,1.15-3.09,2.56-4.29.08-.08.15-.45,0-.43A4.07,4.07,0,0,0,43,70.7a6.87,6.87,0,0,0,1.91,5,7.6,7.6,0,0,0,5.25,2.74c2.32.07,4.05-1.73,5.24-3.57a.69.69,0,0,0,.17-.3C56.07,72.44,55.17,71.78,53.79,70.44Z"/><path class="cls-1" d="M61,93.78a1.57,1.57,0,0,0,.41-.63c0-.2-.06-.7-.37-.58s-.54.57-.77.82-.24.27-.37.4l-.3.38c-.34-.1-.67-.22-1-.35.22-.18.41-.39.63-.58a9.46,9.46,0,0,0,.9-.61c.17-.16.26-.89-.13-.84s-.75.47-1,.76a5.92,5.92,0,0,0-.35.48c0-.17,0-.31-.14-.34a3.57,3.57,0,0,0-2.26-.13C53.3,92.8,46,95.33,48.9,98.8c1.3,1.56,4.14,1.13,5.88.84a11.55,11.55,0,0,0,6.84-3.48l.06,0a.57.57,0,0,0,.31-.53A1.56,1.56,0,0,0,61,93.78Zm-.81,1.54.6,0a7.74,7.74,0,0,1-2.15.28A7.83,7.83,0,0,0,60.16,95.32ZM50.42,98.6c-1-.32-1.78-1.15-1.12-2.25a5.45,5.45,0,0,1,2.55-1.76c1.26-.55,2.6-.83,3.89-1.25a.8.8,0,0,0-.18.23l-.18.09c-.2.11-.25.53-.18.72l.07.15a.49.49,0,0,0,.1.41,1.18,1.18,0,0,0,.25.23,4.06,4.06,0,0,0,4.06,1.44C57.05,98.42,53.3,99.53,50.42,98.6Z"/><path class="cls-1" d="M73.56,99.4c-.09-.21-.2-.43-.3-.63a.19.19,0,0,0,0-.08c-.51-2.76-1.52-5.45-2.11-8.21-.62-2.91-1.14-5.83-1.76-8.73,0-.11-.14-.28-.28-.27a9.18,9.18,0,0,0-1.17.18,16.88,16.88,0,0,0-.8-3.65c-.46-1.71-.93-3.43-1.46-5.12l0,0a4.9,4.9,0,0,0-.3-2.34,1.31,1.31,0,0,0,.66-.24c.18-.15.27-.77,0-.9a3.15,3.15,0,0,0-1.23-.1,2.84,2.84,0,0,1-1.21-.36,3.71,3.71,0,0,1-1.39-2c-.05-.13-.16,0-.17.1a3.11,3.11,0,0,0,1.07,2.83,3.7,3.7,0,0,0,1.26.58,3.3,3.3,0,0,1,.14,3.51A2.18,2.18,0,0,1,63.25,75a3.57,3.57,0,0,1-3.15-1,4.15,4.15,0,0,1-1.62-3c.08-1.57,1.86-1.87,3-2.47.13-.07.11-.36,0-.39a2.54,2.54,0,0,0-.78,0,.68.68,0,0,0-.1-.35c.23,0,.28-.57.06-.7-.95-.54-2.24-1.21-1.77-2.51a6.6,6.6,0,0,1,1.26-1.85c.65-.76,1.66-1.62,1.59-2.71,0-.13-.12-.49-.29-.29-.66.75-1.19,1.63-1.8,2.42a7.84,7.84,0,0,0-1.33,2.08c-.57,1.66.49,2.78,1.9,3.43a12.4,12.4,0,0,1-2.77.82,2.57,2.57,0,0,1-2.14-.87,16.42,16.42,0,0,0,2.27-2c.08-.1.09-.51-.13-.43a9.47,9.47,0,0,0-2.9,2,.68.68,0,0,0-.12.81,3.78,3.78,0,0,0-1.13.62,4.43,4.43,0,0,0-1,1c-.05.06-.06.27.07.24a7.55,7.55,0,0,0,1.16-.53,5.45,5.45,0,0,0,1.07-.48.86.86,0,0,0,.14-.44A3.22,3.22,0,0,0,57,69.54a5,5,0,0,0,1.42-.19A2.59,2.59,0,0,0,58,70a4,4,0,0,0,.43,3.42,6.63,6.63,0,0,0,2.22,2.22,24.41,24.41,0,0,0,.86,6.3c.53,2.43,1,4.89,1.75,7.27.07.24.19.3.32.25a2.06,2.06,0,0,0,0,.43,1.77,1.77,0,0,0-2.16.25,1.69,1.69,0,0,0,.17,2.09c.09.08.15-.07.14-.14,0-.31-.1-.7-.1-1,0,0,0-.08,0-.09s0-.07,0-.09l0-.05h0l.05-.07a.82.82,0,0,1,.38-.16,1.74,1.74,0,0,1,.6,0,2.62,2.62,0,0,1,.57.2l.27.16.06,0,.13.11.1.1s0,0,0,0h0l0,0h0l-.06.06-.2.13-.47.2c-.27.09-1,.22-1.1.46s0,.33.19.46a1.18,1.18,0,0,0,.19.11l-.28.06c.34.16.43.22.76.14l.31-.09a4.91,4.91,0,0,0,.62-.28,1.66,1.66,0,0,0,.69-.65,1.38,1.38,0,0,0,.13-.84c1.07,1.17,2.76,1.43,3.84,2.74a7.68,7.68,0,0,1,1.29,2.59,2.78,2.78,0,0,1-1.68,1.49,2.43,2.43,0,0,1-2-.5,3.28,3.28,0,0,1-1.23-2c-.21-1.1.34-2,.53-3,0-.06,0-.28-.13-.22-.94.48-1.18,2.09-1.16,3a4.46,4.46,0,0,0,1.34,3.1,3.49,3.49,0,0,0,.54.41.26.26,0,0,0-.1.19,6.5,6.5,0,0,0,3,6.83c.62.34.81.47,1.38.14A6.05,6.05,0,0,0,72,104.45a4.64,4.64,0,0,0,.85-3.88v0c.17-.06.36-.11.53-.18C73.69,100.23,73.7,99.69,73.56,99.4ZM68.1,82.61l.71-.08c.5,2.75,1,5.49,1.53,8.23.29,1.42.56,3,.94,4.53a11.63,11.63,0,0,1-1.66-4.71c.3-.27.28-1-.16-1-.61,0-1.56.08-2-.43-.73-.8.6-1.57,1.21-1.88a.69.69,0,0,0,.28-.81,7.21,7.21,0,0,0-.85-2.78.19.19,0,0,0-.07-.06A4.55,4.55,0,0,0,68.1,82.61Zm-5.69-.35c-.49-2.11-.75-4.29-1.25-6.4a2.77,2.77,0,0,0,3.2-.34,3.88,3.88,0,0,0,1-1.54c.24,1.34.58,2.66.91,4a23.23,23.23,0,0,0,1.19,4.51c0,.33.1.6.15,1l0,0a10.38,10.38,0,0,0-3.79,4.76C63.43,86.2,62.86,84.24,62.41,82.26Zm8.45,22a1.37,1.37,0,0,1-2.06.14A6.29,6.29,0,0,1,66.4,99a.8.8,0,0,0,0-.15,3,3,0,0,0,3.79-1.25,15.61,15.61,0,0,0,1.08,3.13.3.3,0,0,0,.36.18c.15,0,.3-.11.46-.15v.07A3.38,3.38,0,0,1,70.86,104.25Zm1.48-4.72c-.7.17-.46.22-.84-.26a6.26,6.26,0,0,1-.63-1.87,18.57,18.57,0,0,0-1.25-3.56c-1.21-2.25-3.76-2.29-5.41-4-.13-.13-.22.15-.18.24l0,.07a1.78,1.78,0,0,0-.27-.17.16.16,0,0,0,0-.07,7,7,0,0,1,1.8-3.31,12.27,12.27,0,0,0,2.15-2.3.81.81,0,0,0,0-.24,22.78,22.78,0,0,1,.34,2.3c-1,.58-2,1.51-1.73,2.79a2.2,2.2,0,0,0,2.42,1.59c.28,3.26,2.3,5.88,3.75,8.74Z"/><path class="cls-1" d="M65.64,81.75a11.63,11.63,0,0,0-.26-1.17c0-.23-.15-.46-.42-.42a1.81,1.81,0,0,0-1.11,1c-.19,0-.32.13-.19.35a.08.08,0,0,1,0,0l0,0a.13.13,0,0,0,0,0,.81.81,0,0,0,.41.29,1.38,1.38,0,0,0,0,.29,1.5,1.5,0,0,0,.81,1.14c.16.09.33-.07.39-.21A2.62,2.62,0,0,0,65.64,81.75Zm-1.06-.11v0a1.47,1.47,0,0,1,.21-.22l.12.47a.83.83,0,0,1,0,.35A.63.63,0,0,1,64.58,81.64Z"/><path class="cls-1" d="M87.25,101.93c-.22-1.12-.94-2.63-.93-3.79.21.06.47-.31.42-.61a172.26,172.26,0,0,0-4.46-18.7c-1.72-6.38-3.51-12.72-5.11-19.13C75.74,54,74.59,48.13,72.6,42.63c-.9-2.49-2.17-6-4.48-7.5C65,33.06,64.36,39,64.24,40.89c0-.11-.07-.23-.11-.34s-.19,0-.17.09a33,33,0,0,0,.78,3.41,12.5,12.5,0,0,0,1,3,91.65,91.65,0,0,0,2.53,11.87c1.3,5,2.82,10,4.39,15s3.15,9.82,4.63,14.77c.75,2.52,1.45,5.06,2.17,7.59.76,2.74,1.32,5.83,2.64,8.36.22.44.38-.27.36-.46a36,36,0,0,0-1.81-6.68.2.2,0,0,0,.08,0,3.24,3.24,0,0,0,2.76-1.88,4.52,4.52,0,0,0,.25-3.33c-.7-2.36-3.07-3.56-5.11-2-.16-.56-.31-1.11-.47-1.66-1.45-4.94-3.05-9.84-4.61-14.76l-.12-.37a4,4,0,0,0,3.63-4.9,3.57,3.57,0,0,0-5.66-2.12.27.27,0,0,0-.08.17c-.77-2.58-1.51-5.16-2.19-7.76C68.39,56,67.82,53,67.25,50a3.8,3.8,0,0,0,3.25-1.39,4.15,4.15,0,0,0,.73-3.31c-.57-2.94-3.58-3.71-5.9-2.13-.11.08-.11.42.07.36l.1,0c0,.45,0,.9.06,1.36-.16-.39-.32-.77-.44-1.15-.25-.81-.49-1.64-.76-2.45.08,0,.16,0,.19-.16.26-1.39.49-4.27,1.78-5.15.93-.64,1.84.36,2.42,1.07a23.53,23.53,0,0,1,3.77,8.21c3.2,11.1,5.85,22.38,8.89,33.53.85,3.16,1.66,6.34,2.43,9.52s1.31,6.26,2.21,9.3l-.12-.07c-.11-.06-.19,0-.23.12l-.23.53a.39.39,0,0,0,.07.4,7,7,0,0,1,.71,2.51,26.59,26.59,0,0,1,.66,3.63c.06.65.31,2.22-.38,2.64-.87.54-2.42-.79-3.11-1.18-.16-.09-.18.24-.11.32.65.8,2,2.3,3.25,1.87.87-.3,1.07-1.45,1.13-2.23A15.85,15.85,0,0,0,87.25,101.93Zm-4.33-9.38a2.89,2.89,0,0,1-.06,2.39c-.5.91-1.37,1-2.15,1.54a.81.81,0,0,0-.18.5l-.12-.39q-.82-3-1.68-6A3.38,3.38,0,0,1,82.92,92.55ZM71.51,67c1.88-.39,4.12-.36,4.75,1.87s-1.41,3.09-3.17,3.54q-.84-2.7-1.67-5.42A.14.14,0,0,0,71.51,67ZM70.4,45.49a2.55,2.55,0,0,1-.52,2.36c-.81.88-1.83.74-2.85,1-.36-1.82-.73-3.64-1.17-5.45C67.74,43,69.84,43.3,70.4,45.49Z"/><path class="cls-1" d="M107.29,105.92a33.5,33.5,0,0,0-1.24-10c-.9-3.9-1.57-7.83-2.22-11.78-1.34-8.08-2.52-16.19-4-24.25C99,55.46,98.23,51,97.45,46.52,96.83,43,96.22,39,94.38,35.89c-.59-1-1.48-2.17-2.76-2.22-1.61-.06-2.87,1.62-3.69,2.78-.13.18,0,.68.23.41.85-1,2.13-2.44,3.62-2.12,1.21.26,1.92,1.6,2.41,2.62,1.54,3.27,2.09,7.06,2.67,10.6,1.88,11.55,4,23.06,5.86,34.63.39,2.41.77,4.83,1.2,7.25A4.87,4.87,0,0,0,98.77,89c-.29-1.4-.53-2.81-.75-4.22-.76-4.85-1.24-9.74-2-14.59-.25-1.45-.53-2.89-.85-4.33a7.66,7.66,0,0,1,2,.27,4.42,4.42,0,0,1,2.07,1.6,1.8,1.8,0,0,1,.15,2.09c-.67.91-1.83.86-2.78,1.22-.22.09-.23.84,0,.88a3.17,3.17,0,0,0,3.51-4.13A4.43,4.43,0,0,0,98,65.55,4.5,4.5,0,0,0,95,65.09c-.77-3.41-1.68-6.8-2.54-10.18-.58-2.26-1.14-4.52-1.74-6.78,2.43.47,5.21-1.4,4.3-4.07C94.2,41.75,91,40.84,89.54,43c-.05.07-.07.36.09.3a4.37,4.37,0,0,1,2.83-.48,2.83,2.83,0,0,1,1.73,1.55,1.51,1.51,0,0,1-.29,1.79c-1,.87-2.33.71-3.52.8-.95-3.57-2-7.13-3.18-10.61-.08-.23-.25,0-.22.17,2.09,9.75,5.26,19.31,7.32,29.08a0,0,0,0,0,0,0q.59,2.77,1,5.58c.81,5.13,1.29,10.3,2.16,15.42A67.91,67.91,0,0,0,99,93.71c.61,2.2,1.57,4.27,2.17,6.45.43,1.55.59,3.29,1.46,4.68,1,1.55,2.7,2,4.41,2.22C107.55,107.12,107.64,106.19,107.29,105.92Zm-7.74-13.5c-.26-1-.48-2-.68-3,2-.21,4.44.17,5.26,2.27,1,2.49-2.08,2.94-3.77,3.25C100.06,94.14,99.78,93.29,99.55,92.42Zm3.32,10.73c-.56-1.44-.72-3-1.21-4.49-.3-.9-.62-1.77-.94-2.65a4.17,4.17,0,0,0,4-2.1c0,.06,0,.13,0,.19a59.29,59.29,0,0,1,1.87,11.66C105,105.48,103.54,104.86,102.87,103.15Z"/><path class="cls-1" d="M187.81,364.56c-.1-.16-9.85-15.81-23.82-19.56a75.85,75.85,0,0,0-27.08-2l-.13-.93a77,77,0,0,1,27.45,2c14.34,3.85,24.28,19.81,24.37,20l-.79.49Z"/><path class="cls-1" d="M188.57,569c-.07-.69-.15-1.39-.22-2.09a.3.3,0,0,0,0-.34c-.27-2.28-.59-4.55-.85-6.83-.33-2.73-.56-5.5-1-8.22l.35-.09c.48-.13.38-1.32-.18-1.16l-.38.11a.21.21,0,0,0-.38.1c-12.17,3.48-24.55,6.17-36.76,9.56-9.73,2.7-19.44,5.55-29.22,8.08a2.94,2.94,0,0,0-1.25-.62c-.24-.06-.27.44-.14.55l0,0a.37.37,0,0,0-.14.32v.09q-3.36.87-6.74,1.67c-6.86,1.62-13.79,2.79-20.67,4.22-.06-.16-.18-.19-.28-.12s-.15.09-.18.21l-.26.06c-.2,0-.21.54,0,.52l.35,0a130.7,130.7,0,0,0,1.8,18.94c.1.58.53.47.7.11a.6.6,0,0,0,.12.11c-.17.2-.12.71.18.64,11.74-2.71,23.42-5.75,35.11-8.64a11.68,11.68,0,0,0,1.1,2.21.32.32,0,0,0,.56,0,5.92,5.92,0,0,0,1.56-3l3.11-.77a11.7,11.7,0,0,0,.91,1.92c.18.3.51.23.65-.08a11.1,11.1,0,0,0,.72-2.41l3.86-1a5.38,5.38,0,0,0,1,1.22c.28.24.53,0,.61-.32a11.1,11.1,0,0,0,.3-1.39l4.93-1.26a1.86,1.86,0,0,0-.1.25c0,.11-.06.87.23.72a2.83,2.83,0,0,0,.28-.2,3.13,3.13,0,0,0,.36.44c.26.26.3-.71.29-.79a2,2,0,0,0-.06-.26,2.68,2.68,0,0,0,.28-.49l5.49-1.45a3.49,3.49,0,0,0,.63,1c.3.32.57-.19.59-.44a8,8,0,0,0,0-.85c1.88-.5,3.76-1,5.64-1.54a1.47,1.47,0,0,0,.6.27c0,.09,0,.19,0,.29s.15.35.32.2a2.23,2.23,0,0,0,.62-1.07h0c.09,0,.14-.07.16-.2l3.64-1c6.79-2,13.58-4,20.28-6.24.49-.16.37-1.37-.18-1.18q-2.9,1.05-5.84,2a10.21,10.21,0,0,1-5.92-.67,7.06,7.06,0,0,1-3.13-3.94c-1.37-3.44-2.1-7.13-5.17-9.55-.08-.07-.13.11-.08.17a15,15,0,0,1,3.54,5.59c.65,1.7,1.09,3.49,1.9,5.12,1.39,2.82,3.91,3.85,6.68,4l-1.63.5c0-.15,0-.41-.09-.42-1.84-.12-3.82-.34-5.26-1.62a7.28,7.28,0,0,1-2-3.82c-.73-2.92-1-5.9-2.9-8.36-.07-.1-.15.11-.1.17,2,3,1.95,6.35,3,9.6a6.45,6.45,0,0,0,5.77,4.47,70.77,70.77,0,0,1-8,0c-.21-2-.72-4-2.06-5.3,0-.53-.09-1.05-.13-1.62-.05-.93,0-1.84,0-2.76l1.06-.39c-.72,4.13.88,8.43,5.39,9.53.16,0,.21-.55,0-.61a7.6,7.6,0,0,1-4.5-3.58,9.42,9.42,0,0,1-.71-5.43l.07,0c.42-.16.36-1.19-.14-1.1a.17.17,0,0,0,0-.07,3.11,3.11,0,0,0-.39-1,2.2,2.2,0,0,0-1.2-.89.41.41,0,0,0-.08-.19,7.41,7.41,0,0,0-.69-1.38l.76-.19c5.51-1.35,11-2.71,16.49-4.14a12,12,0,0,0,4.3,3h0c0,.31,0,.62.07.94-2.67-1.38-6.16-.43-8.39-2.78-.08-.08-.15.11-.11.17a4.88,4.88,0,0,0,3.25,2.11c.77.15,1.55.23,2.33.37a20.32,20.32,0,0,1,3,.93c.07.73.14,1.45.22,2.18a0,0,0,0,0-.07,0c-2.21,1.54-4.44,2.39-7.15,1.81-.08,0-.1.15,0,.18a6.76,6.76,0,0,0,7.26-1.49s0,0,0-.09c0,.48.11,1,.17,1.45-2.48,2.21-5.6,4-9,2.8-3.65-1.23-4.68-5-4.32-8.53,0-.11-.11-.17-.13,0-.64,3.52.25,7.57,3.86,9.09,3.34,1.4,7.39-.07,9.67-2.73.2,1.54.42,3.09.64,4.62-3.68.95-7.61,1.85-11.21,0-4.08-2.1-5.31-6.53-5.21-10.82,0-.12-.11-.13-.12,0-.57,4.19.75,8.66,4.46,11s8.15,1.61,12.15.29c.1.68.21,1.37.31,2S188.62,569.57,188.57,569ZM168,574.56c0-.1,0-.21,0-.31l1.2,0Zm6.87-2-5,1.46c0-.16,0-.38-.11-.38l-1.82-.08c0-.32,0-.65-.05-1C170.23,572.58,172.59,572.72,174.89,572.54Zm-83.58,2.37.2,0a.21.21,0,0,0,0,.14A12.47,12.47,0,0,0,94,577.15a10,10,0,0,1,2.71,2.39c.75,1.3-1,2.56-1.82,4,0-.29-.1-.58-.15-.86,0,0,0,0,.07,0A2.68,2.68,0,0,0,94,578.3c-.09,0-.11.13-.07.18a4.81,4.81,0,0,1,1.17,1.68,2.4,2.4,0,0,1-.42,2,0,0,0,0,1,0,0A17.4,17.4,0,0,0,91.31,574.91ZM95,584.44a4.76,4.76,0,0,1,.76-1.55,17.84,17.84,0,0,0,1.19-1.56,2,2,0,0,0,.23-1.92c-.82-1.75-3-2.72-4.63-3.86,3.34.71,7.88,4,6.59,7.92-.42,1.27-1.66,2-2.49,3a9.25,9.25,0,0,0-1.77,2.85A21.14,21.14,0,0,0,95,584.44Zm18.49,4.27-6.56,1.65c1.81-1,3.57-2.29,5.27-3.45a21,21,0,0,0,4.88-4.29,4.86,4.86,0,0,0,1.14-4.16c-.59-2.15-2.94-3.32-4.86-4-.08,0-.11.13,0,.17,1.72.93,4.34,2.21,4.64,4.42.24,1.79-1.2,3.41-2.4,4.56-2.8,2.7-6.39,4.73-9.68,6.77a.29.29,0,0,0-.08.26c-3,.76-5.9,1.54-8.82,2.38a6.88,6.88,0,0,1,3.2-4,28.1,28.1,0,0,1,3.59-1.34c2.74-.92,5.71-1.71,8.11-3.35,1.19-.81,2.94-2.67,1.82-4.19a5.83,5.83,0,0,0-2.49-1.56,35.4,35.4,0,0,0-4.14-1.41c-2.82-.82-6-1.27-8.62-2.51-.12,0-.14.18-.06.23,1.84,1.35,4.46,1.76,6.62,2.37,2.48.71,5.27,1.3,7.49,2.68,2.61,1.6-.53,3.79-2.18,4.62a66.09,66.09,0,0,1-7.93,2.92c-2.9,1-5,2.42-5.8,5.63v0c-1,.28-2,.57-3,.87a.37.37,0,0,0,0-.11,19.9,19.9,0,0,0,1-3.41c0,.15.14.46.25.2a16.34,16.34,0,0,1,3.41-5.11,4.49,4.49,0,0,0,1.32-3.75,7.69,7.69,0,0,0-7.22-6.52c-.06,0-.08.06-.08.12a7.93,7.93,0,0,1-.69-.55,147.51,147.51,0,0,0,17.19-3.13l3.24-.75a6.35,6.35,0,0,1-4.6,1.26c-.08,0-.1.16,0,.19,2.1.83,4.14-.25,5.68-1.7l3.38-.83a9.83,9.83,0,0,1-5.36,3.54,13.39,13.39,0,0,1-6.88.21c-.08,0-.11.17,0,.2a11.87,11.87,0,0,0,7.43,0c1.89-.58,4.79-1.91,5.37-4l1.43-.35a28.14,28.14,0,0,0,.89,5.61,10.94,10.94,0,0,0-2.52-3c-.1-.09-.14.12-.09.18,2.12,2.63,4.1,5.59,3,9.1-1,3.24-3.74,5.08-6.19,7.15A.46.46,0,0,0,113.46,588.71Zm6.71-11.78.33.51-.09.48A8.9,8.9,0,0,0,120.17,576.93Zm-5.35,11.44a14.25,14.25,0,0,0,5.11-6,22.49,22.49,0,0,0,.3,4.7Zm6.07-1.5c0-1.67-.13-3.33-.1-5,0-.45,0-.91,0-1.36a.33.33,0,0,0,.39-.25l.09-.3a4.14,4.14,0,0,1,.56,1,5.83,5.83,0,0,1,.22,2.24c0,.38,0,.76-.07,1.14a9.21,9.21,0,0,0-.55,2.41Zm.77-.19c.08-.37.17-.75.29-1.14,0,.36,0,.71,0,1.07Zm-.15-7.65a3.55,3.55,0,0,0-.13-1.55,2.46,2.46,0,0,0-.93-1.23.62.62,0,0,0,0-.27c-.55-2.23-1-4.45-1.44-6.7l.59-.15a4.79,4.79,0,0,1,1,2.3c.19,1.21-.07,2.41,0,3.62,0,.35.48.54.6.14a5.87,5.87,0,0,0,.22-1,23.16,23.16,0,0,0,7.34-.4c-.18.8-.46,1.6-.6,2.41,0,0-.09.06-.11.16s0,.1,0,.15A41.6,41.6,0,0,0,122,578c-.15,0-.19.46,0,.46a26.4,26.4,0,0,0,5.87-.72c-.09.71-.14,1.44-.17,2.16a7.33,7.33,0,0,0-3.46.22c-.1,0-.09.25,0,.22a7.31,7.31,0,0,1,3.43.08c0,.35,0,.7,0,1.05a3.41,3.41,0,0,0-2.31-.41,4,4,0,0,0-2.44,1.58C122.9,581,122.61,579.51,121.51,579Zm8.11-5.4c.76-.14,1.5-.3,2.21-.44,1-.19,1.93-.42,2.89-.65a16.42,16.42,0,0,0-.22,2.61l-.33.08s0-.05,0-.07c-.06-.24-.27-.07-.29.09a.13.13,0,0,1,0,.06l-.78.19c-1.18.28-2.39.51-3.61.74-.12-.19-.24-.36-.37-.53A11.51,11.51,0,0,0,129.62,573.63Zm-.09-4.13c.86-.29,1.72-.57,2.59-.83l2.54-.72c.06,1.14.14,2.28.12,3.43-.85.22-1.71.42-2.57.61s-1.63.35-2.46.51A9.47,9.47,0,0,0,129.53,569.5Zm-.41,8a16.81,16.81,0,0,1,1.56,3.53c-.14-.07-.27-.15-.41-.21a10,10,0,0,0-1.87-.72c0-.81,0-1.62,0-2.43Zm-.16-4.82c-.81.14-1.62.28-2.44.4-1.66.24-3.37.3-5,.59a10.24,10.24,0,0,0,0-1.57c2.58-.7,5.09-1.6,7.63-2.45A23.6,23.6,0,0,1,129,572.65Zm-5.07,13.48c.34-.79.85-1.78,1.74-1.87a2.24,2.24,0,0,1,1.77,1Zm4.1-1c-.5-.81-1.51-1.65-2.46-1.41s-1.55,1.52-1.85,2.47l-.92.23c0-.76.15-1.89.18-3a3.66,3.66,0,0,1,2.4-1.68,2.88,2.88,0,0,1,2.4.57,15.57,15.57,0,0,0,.48,2.81Zm.69-1.85a14.64,14.64,0,0,1,.91,1.45l-.54.14A14.12,14.12,0,0,1,128.68,583.27Zm1.35,3.85a9.52,9.52,0,0,1-.59-1.2l.8-.2.63-.15A4.79,4.79,0,0,1,130,587.12Zm.15-2.54a5.37,5.37,0,0,0-1.66-2.53c-.05-.47-.08-.93-.1-1.4a17.24,17.24,0,0,1,2.46,1.09,8.32,8.32,0,0,1,.22,2.61Zm-.11-7.33c.85-.2,1.69-.41,2.51-.59l1.19-.28a22.69,22.69,0,0,0,0,2.61l-.55-.52c-.09-.09-.15.12-.09.19a7.57,7.57,0,0,0,.67.71,20.21,20.21,0,0,0,.57,3.55c-.92-.39-1.79-.89-2.67-1.37A15.46,15.46,0,0,0,130.07,577.25Zm1.85,6.9a10.36,10.36,0,0,0-.11-1.92c.87.46,1.75.91,2.66,1.28Zm2.47-7.91,1-.22c.16.46.3.92.44,1.39l-.31-.2c-.08-.06-.13.14-.07.19l.48.37a17.77,17.77,0,0,1,.56,2.76,8,8,0,0,1-1.68-.79C134.68,578.58,134.59,577.41,134.39,576.24Zm12.83-8.65c-1.06.37-2.12.74-3.19,1.09l-2.69.85a7.1,7.1,0,0,0-.56-3.24l2.44-.63,3.65-.94a.86.86,0,0,0,0,.17A19.07,19.07,0,0,0,147.22,567.59Zm5.88-2.14c-1.7.63-3.39,1.25-5.09,1.86a6.39,6.39,0,0,0-.82-2.66c1.88-.48,3.77-1,5.64-1.48Q152.94,564.31,153.1,565.45Zm.05-2.36q3.16-.86,6.29-1.83v0c.1.57.19,1.13.27,1.7-2,.7-3.92,1.43-5.88,2.16A13.35,13.35,0,0,0,153.15,563.09Zm-6.44,8.71a.69.69,0,0,1,0,.13l-2.77.78-2.36.64a3.91,3.91,0,0,0-.26-.44c0-.07-.08-.09-.12-.08a16.63,16.63,0,0,0,.15-2.11l2.57-.8,3.4-1.14c0,.83-.06,1.66-.12,2.48a1.13,1.13,0,0,0-.22.11c-.08,0-.17,0-.22.18v0A.38.38,0,0,0,146.71,571.8Zm-5.33,3.83c.19.66.41,1.32.56,2a4.63,4.63,0,0,1-1.33.68c0-.62,0-1.24-.06-1.85A3.36,3.36,0,0,0,141.38,575.63Zm-.84.09c0-.33,0-.66,0-1l.08,0a.12.12,0,0,0,.08,0l.45-.12c0,.14.06.27.1.4A5.9,5.9,0,0,1,140.54,575.72Zm0-4.76c-.07.85-.22,1.72-.23,2.57-.1-.23-.4-.15-.4.16v.09c-1.36.36-2.71.7-4.07,1-.07-.18-.14-.37-.22-.55s-.19-.28-.29-.28a12.46,12.46,0,0,0,.2-1.64Q138.07,571.69,140.56,571Zm-5,.22a13.13,13.13,0,0,0-.5-3.35q2.69-.75,5.39-1.46c0,1.14.13,2.26.14,3.39Q138.1,570.53,135.57,571.18Zm.5,13.82c-.11-.21-.21-.43-.3-.65l.52-.13A6.39,6.39,0,0,1,136.07,585Zm.43-2-1.11.28a18.82,18.82,0,0,1-.55-3.07,7.3,7.3,0,0,0,1.68.83A10.7,10.7,0,0,1,136.5,583Zm-.27-7.19c1.23-.3,2.45-.6,3.67-.92,0,.42,0,.85,0,1.29a1.69,1.69,0,0,1-.27.11,3.37,3.37,0,0,1-2.53-.39c-.11-.06-.14.18-.06.23a3.23,3.23,0,0,0,2.85.68h0c0,.54,0,1.1,0,1.64a5.36,5.36,0,0,1-3-.47C136.69,577.25,136.48,576.52,136.23,575.81Zm1.09,4.93a16.66,16.66,0,0,0-.35-2.32,5.37,5.37,0,0,0,2.94.58,14,14,0,0,0,.23,1.72A7.44,7.44,0,0,1,137.32,580.74Zm0,2a13,13,0,0,0,0-1.53,7.4,7.4,0,0,0,2.93,0c.07.24.14.48.23.71Zm3.32-3.94a2.83,2.83,0,0,0,.41-.14,4.87,4.87,0,0,0,1-.54q.15.9.21,1.8c-.31.15-.62.29-.94.41l-.42.14A11.4,11.4,0,0,1,140.65,578.85Zm.74,2.92a4.48,4.48,0,0,1-.29-.68l.58-.2c.21-.08.41-.17.62-.27,0,.31,0,.62,0,.92Zm1.67-2.23c0-.38-.07-.76-.12-1.13s-.08-.57-.13-.85a6.64,6.64,0,0,0,1.73-3.34c.07-.32-.26-.55-.37-.17a7.11,7.11,0,0,1-1.48,2.86,14.1,14.1,0,0,0-.68-2.57l1.72-.45,3-.83a5.28,5.28,0,0,0,.44,1.55,11.9,11.9,0,0,1-2,3.22A10.36,10.36,0,0,1,143.06,579.54Zm0,1.8c0-.38,0-.75,0-1.13a10.45,10.45,0,0,0,3.85-3.82l.33.41a7.42,7.42,0,0,0,.22,1.53,17.15,17.15,0,0,0-1.48,2.25Zm4.18-8.44.39-.11c0,.17,0,.35,0,.49s0,.25-.07.37A5.22,5.22,0,0,1,147.26,572.9Zm-1,7.61c.4-.56.81-1.1,1.24-1.62a6.17,6.17,0,0,0,.07,1.29Zm1.35-9.27a10.81,10.81,0,0,0,.41-2.71c1.74-.59,3.48-1.2,5.21-1.81,0,.19.05.37.07.56.08.89.06,1.79.11,2.67-1.79.54-3.58,1.06-5.38,1.58A.74.74,0,0,0,147.63,571.24Zm.56,3.4c0-.13,0-.26,0-.39l0-.07,0,0h0a5,5,0,0,0,.16-1.57l5-1.45a2.51,2.51,0,0,0,.35,1,11.76,11.76,0,0,0,.75,1l-.1.17a16,16,0,0,0-5.78,3.77l0,0c0-.17.07-.33.1-.49l.08,0c.31.18.29-.7.23-.83A4.59,4.59,0,0,0,148.19,574.64Zm.35,5.29-.1,0a3.4,3.4,0,0,1-.07-.34.66.66,0,0,0,.08-.25,4.28,4.28,0,0,0,0-.8A2.32,2.32,0,0,1,148.54,579.93Zm.34-2.53a15,15,0,0,1,3-2.33,13.62,13.62,0,0,1,2.15-1,2.08,2.08,0,0,0,0,1.41,12.7,12.7,0,0,0-4.65,3.65A4.75,4.75,0,0,0,148.88,577.4Zm1.88,2-1.32.34a1.31,1.31,0,0,0,0-.28,13.78,13.78,0,0,1,4.78-3.4l.12.31a6,6,0,0,0,0,2.07C153.13,578.71,152,579,150.76,579.35Zm3.45-9.63v0a0,0,0,0,1,0,0,.43.43,0,0,0,0-.2,14.18,14.18,0,0,0-.16-3c1.93-.68,3.85-1.38,5.77-2.08,0,.32,0,.63,0,.95,0,1-.22,1.92-.28,2.88h0c-1.57.45-3.14.87-4.67,1.33Zm.52,5.25a1.65,1.65,0,0,1,.28-1.1A1.16,1.16,0,0,1,154.73,575Zm.18-4.18,0-.08,4.31-1.22a1.58,1.58,0,0,0,1.12,1.47l-.11.3a2.67,2.67,0,0,0-.18.79c-.57.05-1.14.11-1.7.2a17.75,17.75,0,0,0-2.86.65,5,5,0,0,0-.29-.45A3.59,3.59,0,0,0,154.91,570.79ZM165,566.35c-1.23.52-2.51.95-3.8,1.35a2,2,0,0,0-.64-.57,10.39,10.39,0,0,0,0-3l4.69-1.71A9.51,9.51,0,0,0,165,566.35ZM161,569a2.17,2.17,0,0,1,.17.58,1.77,1.77,0,0,1,0,.46c-.53-.16-1.23-.2-1.19-.73Zm-5.24,4.53a24.24,24.24,0,0,1,3.69-.69l.69-.07a1.57,1.57,0,0,0,1,1,24.16,24.16,0,0,0-5.42,1.13A2.23,2.23,0,0,0,155.72,573.49Zm1,4.24a4.62,4.62,0,0,1,4-1.09Zm4-1.75a5.48,5.48,0,0,0-4.39,1.85l-.64.17a5.25,5.25,0,0,0-.65-1.69l.06-.57a1.3,1.3,0,0,0,.1-.15,22.79,22.79,0,0,1,5.85-1.12A3.77,3.77,0,0,0,160.79,576Zm-.08-4a2,2,0,0,1,.2-.82.76.76,0,0,1,.08.11,1.46,1.46,0,0,0,.07.4c0,.06.12.2.2.13l.06-.07.12.2Zm1.37,4.27-.6-.18a1.94,1.94,0,0,1,0-.64.18.18,0,0,0,.15-.06,3.09,3.09,0,0,0,.33-.39,2.67,2.67,0,0,1,.48,1.17Zm5.17-1.48c-1.38.41-2.75.79-4.12,1.18a2.93,2.93,0,0,0-.83-1.57c1.62-.09,3.27-.1,4.91-.13C167.22,574.44,167.23,574.61,167.25,574.78Zm-.1-1.26c-1.52,0-3.09,0-4.67.06a3,3,0,0,0,0-1c1.54-.06,3.08-.05,4.61-.05C167.11,572.86,167.13,573.19,167.15,573.52Zm-1.42-6.11,0-.13a25.62,25.62,0,0,1,1.06,3.46c.08.38.13.75.18,1.13h-.74c-1.34,0-2.68,0-4,0a2.59,2.59,0,0,0-.52-.75,3.52,3.52,0,0,0,.11-2.1c0-.11-.06-.21-.1-.33,1.22-.38,2.44-.79,3.62-1.26a.75.75,0,0,0,.06.13C165.53,567.81,165.71,567.52,165.73,567.41Zm-.72-8a2.86,2.86,0,0,1,.82.73,2,2,0,0,1,.3.75c-1.95.6-3.88,1.26-5.81,1.94a10.86,10.86,0,0,0-.52-1.64Q162.43,560.33,165,559.37Zm-.48-1c-7.05,2.39-14.21,4.29-21.42,6.15-3.62.93-7.24,1.87-10.82,2.93a58.14,58.14,0,0,0-10.82,4,6.16,6.16,0,0,0-.85-2.57q3.66-.95,7.3-1.93c12.08-3.26,24.09-6.81,36.23-9.82a4.51,4.51,0,0,0,.28,1A2.58,2.58,0,0,1,164.53,558.41Zm17.6-5.8,3.78-1c0,1.12.09,2.23.17,3.36C184.8,554.15,183.43,553.43,182.13,552.61Z"/><path class="cls-1" d="M145.22,427.19c0,.16.07.3.11.45a4.51,4.51,0,0,1,.75,1.9c5.33,6.21,8.46,15.26,8,25.16-.89,17.84-13.2,31.77-27.46,31.07s-25.14-15.8-24.25-33.64a37.66,37.66,0,0,1,5.74-18.46,1.67,1.67,0,0,1-.19-.49c0-.26-.09-.52-.13-.78a38.53,38.53,0,0,0-6.39,19.68c-.91,18.37,10.38,33.91,25.17,34.65s27.56-13.61,28.47-32C155.57,443.65,151.66,433.59,145.22,427.19Z"/><path class="cls-1" d="M144.75,414c.06.43.13.85.19,1.28,11.25,7.51,18.55,22.71,17.7,39.82-1.18,23.74-17.59,42.29-36.58,41.34s-33.49-21-32.31-44.76c.63-12.73,5.64-23.95,13.07-31.49l-.09-1.25c-7.92,7.7-13.29,19.39-14,32.69-1.2,24.27,13.7,44.8,33.23,45.77s36.39-18,37.59-42.25C164.49,437.36,156.69,421.56,144.75,414Z"/><path class="cls-1" d="M145.35,418.56c0,.42.06.84.08,1.26,9.24,7.27,15.08,20.45,14.35,35.17-1.09,21.77-16.13,38.78-33.55,37.91s-30.7-19.28-29.62-41a44.93,44.93,0,0,1,10.52-27.3,1.88,1.88,0,0,1-.13-.6c0-.23,0-.45,0-.68-6.47,7.06-10.79,17.15-11.35,28.53-1.11,22.3,12.59,41.17,30.53,42.07s33.45-16.53,34.56-38.84C161.51,439.65,155.21,425.91,145.35,418.56Z"/><path class="cls-1" d="M145.44,421v.14a1.38,1.38,0,0,1-.3.87c8.45,7,13.76,19.26,13.08,33-1,20.7-15.34,36.87-31.89,36s-29.19-18.34-28.16-39a43,43,0,0,1,9.27-25.09c0-.29-.06-.57-.07-.84s-.05-.31-.08-.46a43.71,43.71,0,0,0-10.08,26.34c-1.06,21.23,12,39.19,29.07,40s31.84-15.73,32.9-37C159.88,440.79,154.3,428.09,145.44,421Z"/><path class="cls-1" d="M234.82,569c0-36.69-15.11-64.45-26.46-82.13-2-3.11-3.93-5.88-5.64-8.33-8.76-12.58-13.58-19.51-9.61-44.05.75-4.68,1.54-9,2.3-13.13,4.08-22.19,6.76-36.84-5.71-56.42-13-20.44-27.79-20.62-39.66-20.77-1.73,0-3.36,0-5-.11a61.24,61.24,0,0,0-7.15.3l-20.51-197-2.46-24h.49l.06.12c.09.16.22,0,.28-.07a.42.42,0,0,1,0-.1.73.73,0,0,0,.21-.86c0-1.52-1.27-3.4-2.71-3.57l-.53-1.16c-.12-.62-.29-1.23-.38-1.88a18.45,18.45,0,0,1-.12-4c.19-2.59,1-4.94,1.6-7.45a.28.28,0,0,0,0-.17.76.76,0,0,0,.15-.54c-2.5-12-5.07-24-7.49-36C104.07,55.39,102,43.12,99.9,30.83,98.76,24,97.75,17.09,96.41,10.27c0-.17-.14-.17-.21-.09a.29.29,0,0,0-.15-.12c-2.84-1.13-4.92-3.18-7.54-4.65A4.36,4.36,0,0,0,83,5.9c-2.46-3.72-7.67-6-12-5.9a8.17,8.17,0,0,0-4.43,1.35c-1,.49-2,1.16-2.92,1.73-1.24.74-2.51,1.47-3.69,2.3a3.15,3.15,0,0,0-2.22.49,3.25,3.25,0,0,0-.57.54,23.75,23.75,0,0,0-3.4,1.66A25.53,25.53,0,0,0,50.5,9.9c-.16.12-.19.6,0,.68-.08.55,0,1.1-.1,1.67a12.23,12.23,0,0,1-.51,2.25,12.17,12.17,0,0,0-3.67,2.6c-.08.09-.08.41.11.36A13.38,13.38,0,0,0,49,16.13a35,35,0,0,1,3.5-1.67c.43-.18.32-1.28-.17-1.07s-1.33.57-2,.9a5.7,5.7,0,0,0,.74-3.87,31.8,31.8,0,0,0,3.25-1.49c.65-.3,1.36-.6,2-.95A11.67,11.67,0,0,0,56,11.44a2.8,2.8,0,0,0-2.39.84c-.49.75-.19,1.79-.32,2.62,0,.14.13.4.22.17a9.75,9.75,0,0,0,.38-1.48c.29-1.2,1.34-1.09,2.44-1.09.32,0,.39-.41.39-.65,0-1.62-.09-4.46,1.76-5.21s3.51.71,5,1.38a.25.25,0,0,0,0,.08c0,.41.42.28.46,0A8,8,0,0,1,65.9,3a10.86,10.86,0,0,0,1.65-1.12,9.07,9.07,0,0,1,4.55-.65A15.39,15.39,0,0,1,82.54,6.85c.22.27.42,0,.52-.27a6.34,6.34,0,0,1,3.07-.87,6.43,6.43,0,0,1,3,1.35c2.16,1.52,4.13,3.31,6.71,4.13a.32.32,0,0,0,.4-.18c1.15,12.16,3.6,24.23,5.64,36.26s4.56,24.24,7.09,36.3c1.43,6.82,2.55,13.77,4.33,20.5,0,.21.16.29.26.29a17.26,17.26,0,0,0-2,7.1,24.39,24.39,0,0,0-.12,3.26l-5.06-11.13-7-33.4-1.7-4.31-1.3.52,1.63,4.14,5.68,27.26-1.5-3.31-2.08-5.32-.66.26-8-46.67L90.15,43l13.11,76.61c-1.25.13-2.5.25-3.76.36l-29-75.87-1.31.5,28.85,75.5-2.94.23L75,66.68l-1.31.49,20,53.28c-1,.09-2,.19-3,.31L80,89.65l-1.33.45L89.31,121c-1.08.17-2.16.37-3.22.62a.18.18,0,0,0-.08.07A18,18,0,0,0,82.86,114c-.38-.54-.79-1.08-1.24-1.61l0,0a14.68,14.68,0,0,0-4.72-3.86,1,1,0,0,0,0-.25.91.91,0,0,0,.2-.8c-3.69-12-6.17-24.48-9-36.73s-5.52-24.37-8.94-36.39a185.57,185.57,0,0,0-6.64-19.67c-.12-.29-.36,0-.29.21q5.87,17.64,10.3,35.71c3,12.07,5.54,24.22,8.42,36.3,1.65,7,3,14.09,5.29,20.9a17.27,17.27,0,0,0-3.86-.55s-.06-.09-.11-.1a12.18,12.18,0,0,1-3-.66l-.4-.53c-.21-.29-.43,0-.44.26a.37.37,0,0,0,0,.39l.07.06a.31.31,0,0,0,0,.09,4.38,4.38,0,0,0,.19.58c-.19.09-.2.48,0,.54l.21,0a1.71,1.71,0,0,0,.68.62l.09.07c1.7,2.57,4.18,4.7,6.31,6.84a38,38,0,0,1,4.37,5c1.25,1.8,2,3.94,3.28,5.74l.05.68h0c0,.24.55,6.94,1.33,16.9L94.26,265.9c1.54,22.42,3.15,47.32,3.2,51.22,0,2.1.09,4.75.18,7.37a96.16,96.16,0,0,1-9.46-2.08l-.4-.1c0-.1,0-.18-.12-.11l-.07.07c-2.87-.68-6-1.3-8.89-.56h0s0,0,0,0c-4.3,1.38-5.26,7.18-5.69,11-.08.69-.14,1.37-.18,2.06a1.2,1.2,0,0,0-.2,0c-.22,0-.22.21,0,.26l.19,0c-.11,1.87-.13,3.74-.07,5.61a30.34,30.34,0,0,0,.41,5.19c-5.79.38-26.88,2.59-42.83,14.7A57.62,57.62,0,0,0,14.59,379c-.14,0-.25.12-.11.19a74.63,74.63,0,0,0-8.62,30.29c-.45,9.19,1.67,25.26,14.37,49.58a48.49,48.49,0,0,1,4.88,16.31c-.1.05-.09.13,0,.18.83,6.87.37,14.17-2.07,20.46-.84,2.15-2,4.9-3.33,8.08C13.9,518,4.14,541.26,1.78,560.47c-3.14,25.58-4,55.3,13.58,81.77,15.69,23.67,36.34,27.42,47.44,29.43,1.64.3,3.06.55,4.2.83,8.73,2.13,30.76,6.32,31,6.36l0-.24q2.93.39,6,.54a115.89,115.89,0,0,0,28.71-2.59c47.76-9.73,61-22.73,70.66-32.22,1.44-1.42,2.8-2.75,4.16-4C217,632.09,234.85,606.45,234.82,569ZM63.46,6.91a7.12,7.12,0,0,0-2.64-1.37,29.23,29.23,0,0,0,3-1.48l.53-.28A7.94,7.94,0,0,0,63.46,6.91Zm51.37,114.18a3.2,3.2,0,0,1,.32,1.08l-.35,0V122l-1-2.1A4.72,4.72,0,0,1,114.83,121.09ZM116,147.42l28.63,280.5a20.07,20.07,0,0,0-4.48-3.24L110.49,124.39l3.1-.28Zm32,316a43.42,43.42,0,0,1-3.75,2.9l-.16-1.59a19.2,19.2,0,0,1,2.36-1.52c.3-.16.06-1-.09-.87a26,26,0,0,1-2.33,1.78l-.18-1.83c.52-.39,1-.79,1.57-1.17.21-.15.07-.83-.07-.72-.51.45-1,.87-1.56,1.31l-.21-2.19c1.51-1.2,3-2.4,4.53-3.57l.66,6.39a30.41,30.41,0,0,1-4.06,8.64l-.4-4a20.44,20.44,0,0,1,3.76-2.81C148.38,464.06,148.16,463.34,148,463.46Zm-8,10c-.51.47-1,.93-1.55,1.37l0-.36c1.1-.82,2.18-1.65,3.31-2.42.26-.18.13-1-.13-.8a30.55,30.55,0,0,1-3.24,2.61l-.17-1.85c1.27-1,2.54-2,3.79-3,.35-.28.71-.58,1.06-.9l.45,4.53a24.1,24.1,0,0,1-4.81,4.57l-.15-1.63c.56-.48,1.11-1,1.63-1.49C140.34,474,140.27,473.25,140,473.47Zm-20.78,1.65-.41-1,1.28-.91.24,2.85-.84.59a1.16,1.16,0,0,0,0-.43c-.1-.17-.19-.32-.28-.49A1.47,1.47,0,0,0,119.25,475.12Zm-7.33-32.22,0,.35-1.16,1.5.12-.52Zm-.67-.12c.22-.72.46-1.43.73-2.14l.21-.27L112,441.8Zm.32,3.5c0,.45-.09.91-.13,1.36l-1.5,1.6c0-.31.07-.61.11-.92,0-.1,0-.21,0-.32C110.58,447.42,111.08,446.85,111.57,446.28Zm-1.34.86c0-.32.11-.64.17-1l1.35-1.66c0,.3-.07.59-.1.89C111.17,446,110.69,446.56,110.23,447.14Zm1.1,1.66-.06.84c-.49.54-1,1.08-1.47,1.64,0-.31,0-.6.06-.9C110.36,449.86,110.84,449.33,111.33,448.8Zm-.15,2c0,.53-.06,1.06-.09,1.59-.44.44-.88.89-1.31,1.34,0-.13,0-.26,0-.39,0-.37,0-.72,0-1.08C110.24,451.76,110.71,451.28,111.18,450.79Zm-.15,2.63c0,.53,0,1.05,0,1.57L109.93,456c-.05-.47-.08-.94-.11-1.42C110.23,454.23,110.63,453.82,111,453.42Zm-.06,2.43c0,.41,0,.82,0,1.23-.27.27-.55.54-.81.82-.06-.38-.1-.76-.15-1.14Zm0,2.06c0,.52,0,1,0,1.55-.18.18-.36.34-.53.52-.09-.46-.17-.92-.24-1.39Zm-.55-16-.26.39c.15-.55.29-1.1.42-1.66l.52-.67C110.87,440.61,110.65,441.26,110.44,441.92Zm-.38,1.35c-.14.5-.27,1-.38,1.52-.07.09-.15.18-.22.28.12-.5.24-1,.37-1.48Zm-1.25,12.31c0,.5,0,1,.08,1.49l-.69.68c-.09-.45-.18-.89-.25-1.35C108.24,456.14,108.52,455.86,108.81,455.58Zm.12,2.14c0,.45.07.9.1,1.35l-.41.43c-.11-.4-.22-.81-.31-1.22Zm.16,2c0,.51.11,1,.18,1.54l-.1.1c-.15-.44-.29-.88-.41-1.33Zm-1.17-10.53c0,.29,0,.59.06.88l-.32.42c0-.37.06-.74.1-1.11C107.82,449.29,107.87,449.22,107.92,449.16Zm.12,1.39c0,.22.07.43.12.65l-.54.6c0-.25,0-.5,0-.75S107.91,450.72,108,450.55Zm.29,1.34c0,.13.07.26.11.38.12.36.29.08.37-.17,0,.12,0,.23,0,.35l-1.13,1.33c0-.39-.06-.77-.06-1.16Zm.44,1.41c0,.5,0,1,0,1.48l-.93,1c0-.35-.1-.7-.14-1.06a2.72,2.72,0,0,1,0-.28Zm1.53,15.64c.14.27.27.55.42.83a17.31,17.31,0,0,1-2-3.29,24,24,0,0,1-1.39-3.86A23.41,23.41,0,0,0,110.3,468.94Zm.66-6.85q-.19-.81-.36-1.62l.47-.42c0,.6.09,1.21.14,1.81Zm.62-7.68c0-.54,0-1.08.08-1.61l.52-.52c0,.51,0,1,0,1.54Zm2-17.55c.56-.69,1.13-1.36,1.72-2h0c-.16.39-.32.78-.46,1.17-.07.08-.15.16-.22.25-.62.77-1.23,1.56-1.83,2.36.25-.54.5-1.07.78-1.59A.25.25,0,0,0,113.6,436.86Zm10.19-10a.49.49,0,0,0,0-.24,17.45,17.45,0,0,1,2.88-.56c-1.19,1.24-2.36,2.5-3.53,3.77l-.17-1.93c.24-.21.47-.41.71-.6S123.81,427,123.79,426.84Zm13.58,36.32-.32-3.43c1.59-1.31,3.19-2.62,4.79-3.91l.37,3.66Q139.78,461.29,137.37,463.16Zm4.95-2.56.22,2.24c-1.59,1.29-3.2,2.55-4.84,3.8l-.21-2.19C139.11,463.17,140.71,461.88,142.32,460.6ZM137,459.22l-.33-3.52,2.6-2.14c.73-.6,1.45-1.23,2.17-1.86l.36,3.67Zm-.41-4.36-.1-1,3.69-2.84,1.1-.88.09.89C139.79,452.31,138.19,453.59,136.59,454.86Zm-21.13-10.49-.09.82c-.19.19-.38.4-.56.59,0-.28.08-.56.12-.83Zm-.33-.67c.1-.61.21-1.23.32-1.84l.43-.48-.12.74-.15,1.07Zm-.14,9.41-.81.79v-.07c0-.35,0-.7,0-1.06L115,452C115,452.39,115,452.75,115,453.11Zm0,1c0,.49,0,1,.06,1.46v0l-.85.8c0-.5,0-1,0-1.51Zm.12,2.31c0,.58.1,1.17.16,1.78l-.89.8c-.06-.6-.11-1.21-.14-1.81Zm.91-16.05-.41.46c.09-.5.19-1,.29-1.49l.38-.48C116.22,439.37,116.13,439.87,116.05,440.37Zm-.49-2.91-.57.69c.18-.68.36-1.35.55-2l.6-.72C115.94,436.09,115.74,436.77,115.56,437.46Zm-.93,9.73.6-.62c0,.57-.09,1.14-.13,1.71l-.66.67C114.5,448.36,114.56,447.78,114.63,447.19Zm.42,2.17c0,.56,0,1.12,0,1.68l-.75.74c0-.57.06-1.14.1-1.7Zm-.48-7.35-.6.67c.08-.4.15-.8.23-1.2l.62-.76C114.73,441.15,114.65,441.58,114.57,442Zm-.19,1c-.1.57-.17,1.15-.25,1.73l-.63.66c.09-.57.17-1.15.28-1.72C114,443.48,114.18,443.26,114.38,443Zm-.43,3c0,.25,0,.51-.08.76l-.63.68c0-.25.05-.5.08-.75Zm-.22,2.12c0,.55-.09,1.11-.12,1.66-.21.21-.42.41-.62.62,0-.54.07-1.09.12-1.63C113.32,448.56,113.53,448.35,113.73,448.13Zm-.19,2.78q0,.81-.06,1.62l-.57.57c0-.53,0-1.06,0-1.58Zm-.08,2.59c0,.32,0,.65,0,1v.16l-.52.49c0-.36,0-.72,0-1.08Zm0,2.08c0,.49,0,1,.05,1.49l-.44.41c0-.48-.07-1-.09-1.45Zm.09,2.24c0,.6.09,1.21.14,1.82l-.36.32c-.07-.59-.14-1.18-.2-1.77Zm.23,2.64c.09.85.2,1.71.35,2.57l-.25.21c-.17-.83-.32-1.66-.44-2.5Zm.47,3.25c.14.83.32,1.65.52,2.47l-.13.11c-.23-.79-.44-1.59-.62-2.4Zm.6-1.31c-.14-.84-.26-1.69-.36-2.54l.92-.76c.1.82.23,1.65.38,2.49Zm1-7.55a.57.57,0,0,1,0-.13c0-.46,0-.92,0-1.38l2.41-2.26.13,1.54C117.53,453.36,116.71,454.1,115.89,454.85Zm2.56-1.36.14,1.76-2.5,2.24c-.06-.59-.11-1.19-.15-1.78C116.78,455,117.6,454.22,118.45,453.49Zm-2.62-1.17c0-.38,0-.75,0-1.12.74-.72,1.49-1.43,2.23-2.16l.09,1.1Zm.11,10c.15.79.33,1.58.53,2.37-.31.28-.63.55-1,.82,0-.16-.09-.32-.13-.48-.15-.65-.29-1.29-.41-1.94Zm.63-1.42c-.15-.83-.27-1.65-.37-2.49.83-.7,1.66-1.41,2.48-2.13l.22,2.61Zm13.85-12.11-.25-2.7,3.86-3.44.26,2.78Zm4-2.18.21,2.3-1,.83-2.9,2.57-.21-2.3Zm-2.54-4.36,2-1.63.09,1-3.86,3.4-.11-1.19Zm-2,.68-.21-2.28c1.29-1.19,2.55-2.45,3.83-3.68l.26,2.81c-.72.56-1.43,1.13-2.12,1.7Zm4.6-10.47-.43-4.49.36-.33c.14-.13.1-.72-.09-.54l-.32.29-.07-.72a19.22,19.22,0,0,1,4.82,2.3C137.29,430.11,135.87,431.28,134.48,432.48Zm-1,4.23c-1.27,1.14-2.55,2.26-3.85,3.38l-.18-2c1.27-1.16,2.55-2.32,3.83-3.46Zm-4.12.38-.16-1.7,3.66-3.46c.15-.14,0-.86-.11-.72-1.23,1.06-2.44,2.15-3.63,3.25l-.16-1.68c1.26-1.21,2.53-2.4,3.81-3.59l.42,4.42C131.88,434.75,130.61,435.91,129.35,437.09Zm-7.26,10.43,1.12-1,.16,1.85q-1.86,1.54-3.69,3.13l-.14-1.62C120.39,449.08,121.23,448.3,122.09,447.52ZM119.46,449l-.09-1.2c1.18-1.18,2.37-2.36,3.57-3.52l.06-.06.13,1.49-1.57,1.39C120.86,447.68,120.17,448.32,119.46,449Zm4,.28.14,1.56-3.68,3.29-.15-1.72C121,451.3,122.2,450.26,123.44,449.23Zm.63-8.92,3.83-3.69.15,1.69c-1.29,1.22-2.56,2.45-3.84,3.69Zm4.07-1,.18,1.91c-1.3,1.11-2.6,2.21-3.88,3.32l-.14-1.59Q126.2,441.09,128.14,439.29Zm.23,2.56.21,2.19q-2,1.6-3.9,3.23l-.17-1.93Zm.29,3.07.11,1.26-3.89,3.44-.13-1.48Zm.23-12.81-.14-1.5a1,1,0,0,0-.05-.59l-.17-1.88c.41-.39.82-.76,1.25-1.12.21-.16.08-.86-.1-.65l-1.19,1.3-.17-1.76c.41,0,.83,0,1.24,0a17.81,17.81,0,0,1,2.93.4l.21,2.28Zm.72-7.15c-.46,0-.92,0-1.37,0l0-.16c.81-.19,1.64-.35,2.52-.47a11.43,11.43,0,0,1,1.55-.12l.1,1.12A18.21,18.21,0,0,0,129.61,425Zm-1.8,10.72q-1.94,1.83-3.82,3.69l-.14-1.61c1.26-1.26,2.53-2.5,3.81-3.74Zm-4,1.2-.1-1.12q1.89-1.92,3.8-3.82l.12,1.37C126.32,434.49,125,435.68,123.77,436.88Zm-.18-2.08-.13-1.42c1.26-1.27,2.49-2.66,3.78-4l.15,1.7Q125.45,432.92,123.59,434.8Zm-.18-2-.18-2.08c1.24-1.42,2.49-2.83,3.74-4.25l.23,2.54C126,430.29,124.69,431.55,123.41,432.8Zm-.64,8.77.15,1.69-.21.21-3.42,3.34-.14-1.63c.12-.13.24-.26.37-.38C120.6,443.71,121.68,442.64,122.77,441.57ZM119,459.86l.22,2.51L117.28,464c-.21-.77-.39-1.55-.55-2.33C117.48,461.08,118.24,460.48,119,459.86Zm.29,3.34.19,2.3c-.45.39-.91.76-1.36,1.14q-.34-1-.63-1.95C118.07,464.2,118.67,463.71,119.27,463.2Zm.26,3.08.06.7-1,1c-.1-.24-.2-.48-.29-.72Zm.14,1.63.08,1-.48.47c-.13-.26-.24-.52-.36-.79Zm.54-10.15-.22-2.61q1.85-1.62,3.68-3.27l.23,2.64Zm3.79-2.11.21,2.41-3.7,3.19-.21-2.48C121.54,457.73,122.77,456.7,124,455.65Zm.28,3.18.2,2.29q-1.83,1.65-3.71,3.27l-.19-2.31Zm.28,3.17,0,.43c-1.25,1.08-2.49,2.19-3.7,3.31l0-.54C122.1,464.15,123.34,463.09,124.56,462Zm.42-11.28,3.89-3.45.25,2.68-3.91,3.43Zm4.25.44.21,2.31-3.09,2.73-.83.72-.21-2.39Q127.28,452.85,129.23,451.16Zm-2.69,5.68,3-2.61.19,2.07-1.13,1.07c-.92.86-1.85,1.72-2.79,2.57l-.19-2.26Zm2.55,1,.69-.65.08.91q-2,1.58-4,3.21l0-.51C127,459.85,128,458.86,129.09,457.87ZM130,459l.1,1.13-4,3.27-.1-1.1C127.29,461.21,128.61,460.12,130,459Zm-4.39,14.41.15,1.79-1.48,1c-.36-.41-.71-.81-1.07-1.2C124,474.5,124.76,474,125.56,473.44Zm.62-9q2-1.69,3.95-3.36l.31,3.39-4,3.18Zm4.63-11.36,3-2.66.85-.75.17,1.71L131,455.07Zm4.13-.76.17,1.76q-2,1.5-3.93,3l-.11-1.1Q133,454.17,134.94,452.33Zm-3.64,5.59c1.29-1,2.58-2,3.88-3.05l.1,1q-2,1.58-3.93,3.18l-.1-1.12Zm4.06-1.15.33,3.5-3.94,3.16-.31-3.42C132.74,458.92,134.05,457.85,135.36,456.77Zm.38,4,.32,3.36-4,3.07-.29-3.18Zm.68-7.72-.19-2,3.38-3.21c.44-.41.88-.87,1.32-1.33l.28,2.9Zm-.27-2.91-.16-1.63,1.21-1c1.13-1,2.29-2.19,3.51-3.17l.15,1.53C139.29,447.31,137.69,448.72,136.15,450.18Zm-.22-2.35-.23-2.35q2.37-2.09,4.71-4.18l.25,2.54C139.14,445.21,137.52,446.52,135.93,447.83Zm-.34-3.51-.26-2.82c1.57-1.41,3.13-2.84,4.68-4.27l.3,3.07Q137.94,442.29,135.59,444.32Zm-.36-3.83-.08-.93.39-.32c1.42-1.19,2.79-2.68,4.29-3.79l.1,1C138.36,437.76,136.8,439.13,135.23,440.49Zm-.16-1.72-.28-3a36.43,36.43,0,0,1,2.79-2.37c.16-.12.07-.68-.08-.52-.89.9-1.81,1.77-2.74,2.63l-.19-2q2.31-2,4.67-4l.53,5.4C138.28,436.21,136.69,437.5,135.07,438.77Zm-1.24-13.1-.13-1.45a14.48,14.48,0,0,1,5.16,1.39l.24,2.47A19.63,19.63,0,0,0,133.83,425.67Zm-.27-2.87-28.13-298,3.67-.33L138.7,424A15.76,15.76,0,0,0,133.56,422.8ZM105.26,123v0l-.46-2.66c1.2-.1,2.4-.18,3.59-.25l.52,2.49v0C107.7,122.74,106.48,122.87,105.26,123Zm26.9,299.77c-.54,0-1.08.06-1.62.13-.85.12-1.66.28-2.45.45l-27.24-298.1L104,125Zm-9.61,16.27.14,1.58q-1.81,1.82-3.62,3.64l-.13-1.56Zm-3.7,2.59-.07-.81c1.2-1.26,2.39-2.52,3.6-3.76l.09,1C121.25,439.29,120,440.46,118.85,441.65Zm-.15-1.75-.12-1.44q1.78-1.87,3.6-3.74l.12,1.4Q120.49,438,118.7,439.9Zm-.19-2.21-.11-1.34c1.17-1.4,2.36-2.79,3.55-4.17l.17,1.88C120.9,435.26,119.69,436.46,118.51,437.69Zm-.2-2.38,0-.28q1.74-2.11,3.55-4.19l0,.38C120.67,432.56,119.49,433.93,118.31,435.31Zm0-1.07c.12-.55.24-1.11.37-1.67l.36-.4c.87-1,1.76-2,2.7-3l.09,1.07Q120,432.22,118.26,434.24Zm.57-2.61c0-.23.11-.47.16-.71.86-.78,1.75-1.52,2.66-2.25v0Zm-.9-.88-.08-.93a21.49,21.49,0,0,1,2.82-2c.28-.13.57-.27.86-.39l0,.22A18.85,18.85,0,0,0,117.93,430.75Zm-.52,10.53,0,0-.61.65q.15-1,.33-1.92l.2-.22Zm-.52,1.54.6-.63.06.75-1.11,1.15c0-.31.08-.62.13-.93Zm.76,1.23.13,1.53c-.58.57-1.14,1.15-1.71,1.72q.08-.9.18-1.8Zm.2,2.44.14,1.59-2.12,2.09c0-.58.06-1.17.1-1.75Zm-1.29-12.43-.63.72c.11-.36.22-.72.32-1.08l.48-.53,0,.3C116.69,433.67,116.62,433.86,116.56,434.06Zm-1.33-1.36a10.75,10.75,0,0,1,1.32-1.65l0,.28C116.11,431.77,115.66,432.23,115.23,432.7Zm.22,1.09-.21.29a.58.58,0,0,0-.06.37c-.5.64-1,1.28-1.51,1.91a2.09,2.09,0,0,0,0-.56Q114.55,434.78,115.45,433.79Zm-1.14,3.83c-.22.69-.42,1.38-.6,2.09-.41.5-.81,1-1.22,1.52,0-.44,0-.88.05-1.32C113.13,439.14,113.71,438.37,114.31,437.62Zm-.93,3.47c0,.11,0,.22-.07.33l-.87,1.11a2.81,2.81,0,0,0,0-.29Zm-1,2.67L113,443l-.18,1.07-.53.63Zm.34,1.19c-.07.51-.13,1-.18,1.54l-.4.42.12-1.42Zm-.3,2.72c0,.26-.05.52-.06.78l-.38.42.06-.8C112.15,447.94,112.28,447.81,112.4,447.67Zm-.14,2c0,.53-.05,1-.06,1.57l-.46.48c0-.54.07-1.08.11-1.62C112,450,112.13,449.81,112.26,449.66Zm-.07,5c0,.29,0,.58,0,.87a1.93,1.93,0,0,0,0,.24l-.7.7c0-.4,0-.8,0-1.2Zm.08,2c0,.48.06,1,.09,1.47l-.79.77c0-.52,0-1,0-1.55Zm.15,2.13c.06.59.12,1.18.2,1.78l-.89.79-.06-.59c0-.42,0-.83-.07-1.24Zm.29,2.51c.12.84.26,1.69.42,2.54l-.91.79c-.17-.86-.31-1.72-.41-2.59Zm.55,3.17c.18.82.37,1.64.6,2.46l-.88.76c-.25-.82-.47-1.64-.64-2.47C112.64,465,113,464.75,113.26,464.51Zm-.22,5.13c.16.4.34.8.52,1.2-.25-.26-.47-.54-.71-.82C113,470.09,113,469.85,113,469.64Zm.07-1.52.89-.68c.2.69.42,1.37.67,2.05l-.81.65C113.58,469.48,113.33,468.81,113.11,468.12Zm1.7,1.75c.18.49.39,1,.6,1.45l-.64.71c0-.08-.09-.16-.14-.24-.22-.44-.44-.88-.64-1.33C114.26,470.26,114.53,470.06,114.81,469.87Zm.77,1.81.48,1-.27.31-.82-.74Zm.1-5.56c.33-.25.65-.51,1-.77.19.67.4,1.33.62,2l-.94.79C116.09,467.46,115.88,466.8,115.68,466.12Zm1.79,1.78c.1.29.22.57.34.86-.3.3-.59.61-.88.92l-.42-1.07Zm.59,1.49c.12.27.25.54.38.81-.31.3-.61.61-.91.92-.13-.3-.25-.6-.38-.89Zm.8,1.68q.48.92,1,1.77l-1.19.94-.79-1.8Zm1.56,5.72.1,1.25-.61-.44a.68.68,0,0,0-.11-.45Zm.55-10.05q1.84-1.67,3.71-3.28l.1,1.07q-1.89,1.58-3.72,3.22Zm1.6.86c.76-.68,1.53-1.34,2.3-2l.27,3.12c-1.24,1-2.5,2-3.75,3l-.24-2.76C121.63,468.47,122.09,468,122.57,467.6Zm2.63,1.79.26,2.94c-.94.71-1.89,1.41-2.83,2.1-.39-.43-.76-.89-1.12-1.35l-.07-.81C122.7,471.32,124,470.37,125.2,469.39Zm-3.1,6.33c.38.4.77.79,1.18,1.15l-1.37.92-.16-1.83Zm1.54,1.43c.29.24.59.48.9.71s.36-.86.22-1-.15-.16-.22-.25l1.22-.77.17,1.94c-.81.66-1.62,1.32-2.42,2-.1.08-.07.4.09.3l2.39-1.69.22,2.51a17.54,17.54,0,0,1-4.11-.84l-.16-1.86Zm2.88-8.81q2-1.59,4-3.21l.29,3.13q-2,1.55-4,3.07Zm4.39,1.22.18,1.94-4,2.82-.16-1.81Q128.92,471.07,130.91,469.56Zm.23,2.59.13,1.42q-2,1.56-4,3.13l-.16-1.75C128.46,474,129.81,473.1,131.14,472.15Zm.21,2.27.16,1.72q-2,1.41-4.07,2.75l-.13-1.49Q129.33,475.92,131.35,474.42Zm.23,2.46.11,1.28c-.88.55-1.76,1.11-2.61,1.69-.16.12-.11.58.13.44.85-.48,1.7-1,2.54-1.47l.15,1.61a18,18,0,0,1-4.28.5l-.14-1.59Q129.58,478.2,131.58,476.88Zm.64-8.31q2-1.53,4-3.08l.2,2.15q-2,1.49-4,2.92Zm1.17,1.95c1-.76,2.05-1.54,3.05-2.33l.13,1.38-1.76,1.31-2.22,1.69-.13-1.38C132.77,471,133.09,470.75,133.39,470.52Zm1.32,1.4,1.95-1.44.16,1.73c-1.31,1-2.64,2-4,3l-.16-1.76Zm2.19,1.13.16,1.74c-1.32.88-2.68,1.71-4,2.54L132.9,476C134.25,475,135.59,474.05,136.9,473.05Zm-1.55,3.6c.61-.39,1.2-.79,1.78-1.21l0,.47c-1.26,1-2.55,2-3.83,3-.14.1-.09.52.12.39a40.82,40.82,0,0,0,3.78-2.6l.14,1.45a19.64,19.64,0,0,1-4.11,1.91l-.18-2C133.85,477.57,134.6,477.12,135.35,476.65Zm2.4-9.5c1.61-1.29,3.21-2.58,4.83-3.84l.18,1.76c-.76.51-1.51,1-2.22,1.55-.89.65-1.77,1.32-2.65,2Zm5.4-12.36c1.49-1.18,3-2.35,4.51-3.49l.4,3.88c-1.53,1.08-3,2.19-4.55,3.31Zm-3,13.14c.89-.65,1.79-1.4,2.72-2.14l.15,1.56-.32.24c-1.51,1.21-3,2.41-4.53,3.6l-.16-1.68C138.69,469,139.4,468.46,140.11,467.93ZM149,450.32l1-.74a.22.22,0,0,0,.08-.15,35.62,35.62,0,0,1,.13,5.08,32.13,32.13,0,0,1-.39,3.58Zm.93-1.39-1,.79-.54-5.23L149,444a33.06,33.06,0,0,1,.94,5C150,448.92,149.93,448.9,149.89,448.93Zm-1.6-5.06-.32-3a26.79,26.79,0,0,1,.88,2.57Zm-.69,6.88-4.5,3.58-.37-3.79c1.46-1.31,2.93-2.61,4.46-3.78Zm-4.93-.8-.09-.88c1.48-1.22,2.95-2.47,4.47-3.62l.07.67C145.67,447.43,144.18,448.7,142.67,450Zm-.15-1.49-.31-3.19a12.86,12.86,0,0,1,1.29-1.09c.24-.17.1-.95-.11-.73l-1.24,1.21-.45-4.51,3.46-3.1c.16-.15.1-.85-.07-.72l-3.48,2.89-.87-8.75a24.8,24.8,0,0,1,5.44,6.63l.81,7.83Q144.79,446.72,142.52,448.46Zm-1.91-19.31-.27-2.74a18.11,18.11,0,0,1,4.66,3.95l.55.71.4,3.86A24.63,24.63,0,0,0,140.61,429.15ZM112.28,119.91l1.07,2.35c-1,.06-2,.13-3,.22v-.13l0-.19a2.13,2.13,0,0,0-.32-1.57l-.13-.59Zm-.46-1c-.74,0-1.48.08-2.22.13l-1.92-9.22ZM100.1,92.83,101,95l4.09,9,3.15,15.11c-1.18.11-2.36.21-3.54.33Zm3.3,27.61.47,2.74v0l-3.17.41,0-.48,0,0a.15.15,0,0,0,0-.13c-.24-.36-.27-.84-.48-1.23l-.09-.13-.32-.85Zm-3.94,5,27.26,298.33a27.25,27.25,0,0,0-4,1.41L96.59,125.65Zm-1.11-4.51.92,2.4,0,.51-2.86.34v-.28l-1-2.65Zm23,304.91a23.63,23.63,0,0,0-3.68,2.36L92.14,126.06l3-.28ZM94,121.36l1,2.8v.12c-1,.11-2,.2-3,.27l-1-2.87C92,121.58,93,121.48,94,121.36Zm-3.25,4.82,25.64,303.07A13.74,13.74,0,0,0,114,432.1a18.85,18.85,0,0,1-1.73,2.45l-3.7-45.28L87,126.52ZM85.93,123a.76.76,0,0,0,.19-.57l-.06-.41h0c1.09,0,2.18-.1,3.27-.19a.23.23,0,0,0,0,.25,2.92,2.92,0,0,1,.7,1l.12.37a10.55,10.55,0,0,1,.12,1.13l0,.1c-.57,0-1.14,0-1.71.07a.85.85,0,0,0,0-.45c0-.19-.16-.37-.2-.57a4,4,0,0,1,0-1.34c0-.15-.14-.4-.28-.21a2.67,2.67,0,0,0-.14,2.6c-.81,0-1.62,0-2.44,0A9.29,9.29,0,0,1,85.93,123Zm-6.59-11.46.69.65a22.09,22.09,0,0,1-3-.45,16,16,0,0,1-2.42-.8,17.59,17.59,0,0,0,4.69.67S79.33,111.57,79.34,111.53Zm-3.07-2.68.5.43c-1.24-.27-2.53-.28-3.78-.45a9.43,9.43,0,0,1-2-.48A27.05,27.05,0,0,0,76.27,108.85Zm-4.3.88-.15-.16a35.17,35.17,0,0,0,5.91.54c.46.39.91.79,1.36,1.19A16.48,16.48,0,0,1,72,109.72S72,109.72,72,109.73Zm7.57,8.1a24.85,24.85,0,0,0,3.56-.23c.14,0,.12-.45,0-.43a35.21,35.21,0,0,1-3.7.43l0,0c-.62-.74-1.28-1.45-1.94-2.15l-2.73-2.81a12.74,12.74,0,0,0,5.93,1.08c.16,0,.16-.51,0-.5a16.25,16.25,0,0,1-6.44-1.1c-.68-.71-1.34-1.42-2-2.14l.2.09a.12.12,0,0,0,0,.11c2.16,1.92,5.37,2.6,8.25,2.67A16.62,16.62,0,0,1,82,114.43v0a35.08,35.08,0,0,1-4.69.32c-.09,0-.1.18,0,.19a13.66,13.66,0,0,0,5.06,0A18.53,18.53,0,0,1,84,118c-1.23.22-2.45.39-3.7.49-.08,0-.11.13-.09.21C80,118.4,79.78,118.11,79.54,117.83Zm.71.89s0,0,0,0a15.25,15.25,0,0,0,3.93-.26c.1.27.2.55.29.82a10.92,10.92,0,0,0-3.26.49c-.07,0-.1.12-.08.2C80.88,119.56,80.57,119.14,80.25,118.72Zm4.57,5.73a.92.92,0,0,0-.51-.17c-.24,0-.29.53,0,.55a.76.76,0,0,1,.4.16,1.94,1.94,0,0,0-.39-.12c-.09,0-.14.1-.14.21h-.07a24,24,0,0,0-2.84-5h0a21.78,21.78,0,0,1,3.42-.18,21.55,21.55,0,0,1,.67,2.8.52.52,0,0,0,.06.2,4.58,4.58,0,0,0-.49,1.68A.31.31,0,0,0,84.82,124.45Zm.21,2.08.6,0,25.24,308.67c-.11.17-.23.34-.34.52l-1.85.57Zm15.62,223.06a1.12,1.12,0,0,0-.49.48c-4.26-.4-8.49-.57-12.73-1.23s-8.51-1.57-12.8-2.1l0-.88-1,.05c0-.93,0-1.85,0-2.76,2.12.55,4.34.76,6.5,1.13,2.42.43,4.83.88,7.24,1.33,4.39.81,8.8,1.66,13.25,2.11ZM99.08,333l-.18-.1c-.12-2.77-.32-7.69-.44-11.94L99.54,335l-.55-.14c0-.18,0-.49,0-.9a.06.06,0,0,0,0-.09q0-.35,0-.78l0,0C99.05,333.15,99.23,333.06,99.08,333Zm-22.64-3.62A14.5,14.5,0,0,1,77,328s0,0,0,0c.38.13.76.24,1.15.34-.18.37-.35.73-.5,1.11a1.34,1.34,0,0,1-.07.18A9.21,9.21,0,0,0,76.44,329.36Zm.94.75a9.13,9.13,0,0,0-.44,1.34,5.08,5.08,0,0,0-1.06-.17l0-.08c.1-.44.22-.87.36-1.3C76.62,330,77,330.05,77.38,330.11Zm12,1.12c.11.13.21.27.31.4l.79,1-1.89-.5c0-.37.11-.75.19-1.13Zm-.87-2.75-.11,0c-.33-.37-.66-.73-1-1.09q.2-.36.42-.72c.64.34,1.26.7,1.89,1.07-.17.32-.33.66-.48,1Zm2,2.68c-.42-.54-.83-1.1-1.25-1.63l-.09-.11c0-.07,0-.15.08-.23,3,1,5.81,2.27,8.69,3.5,0,.31,0,.59,0,.85C95.51,332.75,93,331.94,90.53,331.16Zm-1.12-2.37c.13-.34.27-.67.42-1l.92.54c1.88,1.13,4.27,2.69,6.55,2.59.42,0,.49-.87.12-1-1.16-.43-2.35-.63-3.49-1.13s-2.36-1.22-3.52-1.86l-.08-.05c0-.08.09-.16.14-.23l.25.07c2.33.67,4.68,1.29,7.06,1.75.06,1.46.12,2.79.16,3.87A53.43,53.43,0,0,0,89.41,328.79Zm1.36-2.59c.14-.2.29-.39.44-.57,2.15.5,4.31,1.09,6.49,1.42h0c0,.38,0,.75,0,1.12C95.43,327.52,93.09,326.89,90.77,326.2Zm-.1,0-2.07-.64.34-.39.74.14,1.43.32Zm-2.23-.68L87,325l-1-.32a.86.86,0,0,1,.07-.1c.88.15,1.75.31,2.63.48Zm-.75,1.09c-.14.23-.28.46-.41.69a16.44,16.44,0,0,0-1.84-1.61.83.83,0,0,1,.08-.12A22.69,22.69,0,0,1,87.69,326.58Zm-5.57.57.38.09,1.65.42c-.18.49-.34,1-.47,1.49l-1.34-.36-.87-.24A12.65,12.65,0,0,1,82.12,327.15Zm-1,1.3c-.76-.22-1.56-.45-2.34-.6.17-.31.36-.62.55-.93l.21-.29,2.15.44A11.79,11.79,0,0,0,81.15,328.45Zm3.27-.72c.77.21,1.53.43,2.29.66a14.08,14.08,0,0,0-.57,1.45c-.74-.22-1.49-.43-2.23-.63A13.63,13.63,0,0,1,84.42,327.73ZM85.6,327c.34.29.65.59,1,.9l-2-.56c.12-.28.25-.55.39-.83Zm-1.29.27c-.53-.15-1.07-.29-1.6-.42l-.36-.09a15.37,15.37,0,0,1,.86-1.3,11,11,0,0,1,1.52.87C84.58,326.62,84.44,326.93,84.31,327.25Zm-2.37-.61c-.67-.16-1.34-.33-2-.47a15.71,15.71,0,0,1,1.33-1.49,14,14,0,0,1,1.57.57A11.92,11.92,0,0,0,81.94,326.64Zm-2.45-.56c-.44-.09-.88-.16-1.31-.21a16.37,16.37,0,0,1,1.26-1.65c.45.09.89.21,1.33.33A12.5,12.5,0,0,0,79.49,326.08Zm-.34.47-.3.46c-.15.25-.29.51-.43.77a7.17,7.17,0,0,0-1.29-.07,15.28,15.28,0,0,1,.79-1.43Q78.54,326.43,79.15,326.55Zm-1.35,3.62.8.14c.66.13,1.31.28,2,.42a13.37,13.37,0,0,0-.18,1.55l-1.89-.42c-.32-.07-.67-.18-1-.27C77.57,331.12,77.67,330.64,77.8,330.17Zm.33-.46-.18,0,.12-.32c.14-.32.29-.64.44-1,.82.2,1.65.37,2.48.54-.13.42-.24.85-.34,1.29C79.82,330,79,329.87,78.13,329.71Zm2.65,1.07.87.18,1.6.38c-.06.52-.1,1-.11,1.56l-1.37-.32-1.23-.27Q80.63,331.52,80.78,330.78Zm.4-.44-.29-.06c.11-.44.24-.86.39-1.28.44.1.88.19,1.32.31l1,.26c-.1.42-.18.85-.24,1.27Zm2.26,1.05c.74.17,1.47.36,2.21.54a14.59,14.59,0,0,0-.14,1.51l-2.21-.51A15.45,15.45,0,0,1,83.44,331.39Zm.08-.5a12.79,12.79,0,0,1,.27-1.26l2.24.61a9.69,9.69,0,0,0-.29,1.21ZM85.81,332l1.67.41.84.22q0,.73,0,1.47l-2.64-.6C85.68,333,85.73,332.47,85.81,332Zm2.56.15-1.13-.3-1.33-.33c.07-.4.17-.8.28-1.2l1.73.5.62.19C88.47,331.35,88.41,331.74,88.37,332.12Zm-.49-1.77-1.57-.46a14.15,14.15,0,0,1,.55-1.46l.31.09c.53.58,1,1.2,1.52,1.82a2.1,2.1,0,0,0-.06.24Zm.65,2.3,2.41.62c.48.6,1,1.2,1.52,1.76l-4-.92A14.6,14.6,0,0,1,88.53,332.65Zm3.56.45c-.39-.45-.77-.92-1.14-1.4,2.34.72,4.69,1.43,7.06,2.09q0,.51,0,.84C96.06,334.13,94.07,333.62,92.09,333.1Zm5.59-7.37c0,.37,0,.75,0,1.11a55.1,55.1,0,0,0-6.16-1.6,7.15,7.15,0,0,1,.62-.61A43.17,43.17,0,0,0,97.68,325.73Zm-9.32-2.08,3.61.93q-.28.32-.54.63l-2.13-.45c.12-.12.24-.24.38-.36s0-.47-.06-.36-.39.45-.57.67l-2.61-.56c.2-.27.41-.53.62-.79C87.49,323.45,87.92,323.54,88.36,323.65Zm-1.68-.38c-.22.26-.42.53-.62.81-.55-.11-1.09-.21-1.64-.29,0-.14,0-.29-.14-.21l-.16.17a14.91,14.91,0,0,0-1.74-.14l.62-.55c.08-.07.06-.34-.08-.26a10.21,10.21,0,0,0-1.14.81c-.21,0-.42,0-.62,0a.31.31,0,0,0-.2.09,7.25,7.25,0,0,0-1-.05c.35-.39.73-.76,1.12-1.13A37.16,37.16,0,0,1,86.68,323.27Zm-13.24,12c1.92.33,3.92.41,5.84.73,2.2.36,4.39.82,6.58,1.29,4.25.91,8.5,1.88,12.82,2.44.14,0,.22-.15,0-.18-4.48-.8-8.91-1.87-13.36-2.84-2.12-.46-4.24-.89-6.38-1.25a30.31,30.31,0,0,0-5.52-.72c0-.17,0-.35,0-.53.33-3.66,1-10.14,5.31-11.36a.42.42,0,0,0,.27-.36c.56,0,1.11,0,1.66,0a15.32,15.32,0,0,0-1.26,1.16l-.48.05c-.15,0-.14.35,0,.38h.06a13.9,13.9,0,0,0-1.28,1.69l-.63,0c-.17,0-.45.14-.16.23l.56.16a14,14,0,0,0-.75,1.37,16.06,16.06,0,0,0-.73,1.77,3.05,3.05,0,0,0-.6.06c-.13,0-.27.16-.08.24a4.56,4.56,0,0,0,.52.18c-.09.28-.17.57-.25.86s-.1.4-.15.61l-.26,0c-.06,0-.23.1-.11.18a2.49,2.49,0,0,0,.28.15,6.4,6.4,0,0,0-.22,2.68c0,.09.12.19.17.05a10.87,10.87,0,0,0,.41-2.59,7,7,0,0,0,1,.26,2.7,2.7,0,0,0,0,.57c0,.1.1.3.19.12a5.56,5.56,0,0,0,.25-.61l1,.17,3.1.7,1.77.4a2.61,2.61,0,0,0,0,.28c0,.13.15.1.15,0v-.23l2.2.5c0,.1.11.12.13,0l2.67.6c1.6.36,3.19.73,4.79,1.07a6.49,6.49,0,0,0,5,1.94c.36,0,.48-.56.36-.9l.88.15c.09,0,.14-.1,0-.13-1.33-.34-2.66-.66-4-1a9.66,9.66,0,0,1-2.67-2q2.7.68,5.41,1.25v.15l.6,0,.78.17a.25.25,0,0,0,.12,0l.24,3.22c-3.85-1-7.77-1.84-11.68-2.63l-6-1.17a38.61,38.61,0,0,0-5.9-1c-.18,0-.47.15-.16.24a51.72,51.72,0,0,0,6.07,1.21c2,.38,4,.76,6.05,1.16,3.9.78,7.78,1.65,11.67,2.44l.28,3.65c-4.2-.79-8.37-1.7-12.54-2.63-2.25-.49-4.51-1-6.77-1.42-1.1-.21-2.2-.41-3.3-.59a11.7,11.7,0,0,0-3-.34c-.21,0-.39.2-.1.28,2.31.64,4.8.82,7.16,1.28,2.18.43,4.36.91,6.54,1.38,4,.88,8,1.78,12.09,2.33l.2,2.68a93.7,93.7,0,0,0-12.16-3c-1.92-.35-3.85-.67-5.77-1a40.47,40.47,0,0,0-6.69-1c-.2,0-.54.16-.18.27a46.41,46.41,0,0,0,5.88,1.06c2.26.36,4.52.72,6.78,1.13a117.56,117.56,0,0,1,12.16,2.78l.14,1.82c-4.5-.77-9-1.54-13.49-2.4-2.41-.46-4.81-.92-7.23-1.35-1-.18-2-.36-3-.52a16.44,16.44,0,0,0-3.27-.41C73.42,340.29,73.3,337.8,73.44,335.28ZM49.18,666.47c-10.13-3.41-22.12-10.11-32.08-25a25.6,25.6,0,0,0,3.27-.18c1.15-.07,2.3-.13,3.46-.18,2.68-.1,5.37-.13,8.06-.11,5,0,10.08.24,15.13.38.23,0,.25-.23,0-.25-5.27-.37-10.56-.61-15.85-.65q-3.76,0-7.53.1-2,.07-4,.21a14.19,14.19,0,0,0-2.84.3,85,85,0,0,1-7.64-14.38,20.36,20.36,0,0,0,3.66-.06c1.52,0,3-.06,4.55,0,2.79,0,5.57.1,8.35.2,5.55.21,11.11.58,16.67.51.21,0,.24-.22,0-.23-5.63-.32-11.26-.61-16.89-.84-2.78-.11-5.57-.19-8.35-.2-1.27,0-2.53,0-3.8,0a15.48,15.48,0,0,0-4.36.26,88.79,88.79,0,0,1-4.13-12.78,30.8,30.8,0,0,0,3.33.13l4.43.11q4.32.13,8.63.33c5.73.25,11.5.75,17.24.68.19,0,.21-.18,0-.2-5.7-.64-11.49-.77-17.22-1q-4.18-.2-8.38-.33l-4.43-.12a27.16,27.16,0,0,0-3.72,0c-3.51-14.67-3.42-29.57-2.15-43.54h0a21.3,21.3,0,0,0,4.64-.15c1.61-.07,3.23-.11,4.85-.12,3,0,6,0,8.93.14,6,.22,11.91.72,17.87,1,.11,0,.12-.11,0-.12q-9.14-1.05-18.33-1.41c-3-.11-6-.17-8.93-.13q-2.16,0-4.32.12a17.38,17.38,0,0,0-4.74.42c.09-1,.18-2,.29-3a17.92,17.92,0,0,0,4.07-.07c1.55,0,3.1-.06,4.65-.05,3,0,6.08.1,9.11.24,6,.28,11.93.75,17.89,1.17.24,0,.26-.23,0-.26-6-.62-12.06-1.14-18.11-1.44-2.95-.14-5.91-.23-8.87-.24-1.38,0-2.77,0-4.15,0-.79,0-1.58,0-2.36.08A8.46,8.46,0,0,0,3,566c.19-1.78.39-3.55.6-5.3.36-3,.91-6,1.59-9.11,1.15.15,2.39.11,3.5.17,1.48.07,2.95.13,4.43.16,3.12.07,6.24.08,9.36.13a118.31,118.31,0,0,1,18.81,1.5c.14,0,.27-.13.09-.17a90.1,90.1,0,0,0-18.61-1.85c-3.12-.06-6.24-.07-9.36-.15-1.65,0-3.29-.08-4.93-.16L6.3,551.1c-.33,0-.64-.07-1-.11,2.64-11.81,7.2-24.29,11.36-34.66A75.66,75.66,0,0,0,25,517c3,.16,5.93.28,8.89.41,5.93.27,11.84.67,17.73,1.43.11,0,.17-.12,0-.15a109.47,109.47,0,0,0-17.24-1.82c-2.88-.13-5.76-.24-8.64-.4s-5.89-.52-8.84-.64c.74-1.81,1.45-3.57,2.14-5.23,5.39.91,11,1.16,16.4,1.55q8.73.62,17.48,1.1c.32,0,.34-.31,0-.34-5.73-.52-11.48-.86-17.22-1.29-5.49-.41-11-1.13-16.5-1.46l2.24-5.36,1.73-4.12h0a28.57,28.57,0,0,0,4,.3q2.1.14,4.2.33c3,.28,5.93.63,8.88,1,5.84.78,11.65,1.65,17.5,2.32.22,0,.24-.21,0-.24-5.83-.82-11.64-1.82-17.48-2.61-2.87-.39-5.75-.74-8.63-1-1.4-.14-2.8-.25-4.2-.34a20.74,20.74,0,0,0-4.24-.08,3.05,3.05,0,0,1,.13-.32c.9.1,1.83.11,2.73.17,1.57.11,3.15.2,4.72.27,3.13.15,6.26.28,9.39.47a124.1,124.1,0,0,1,18.61,2.54c.11,0,.2-.08.07-.12-5.78-2-12.12-2.52-18.19-2.92-3.12-.21-6.25-.34-9.38-.48l-4.74-.22c-1-.05-2-.17-3-.22.44-1,.83-2,1.17-2.88.21-.55.4-1.1.58-1.66.9.14,1.82.19,2.71.27,1.54.15,3.08.28,4.62.38,3,.21,6,.36,9,.53,6,.35,12,.76,18,1.7.19,0,.29-.21.07-.25a132.49,132.49,0,0,0-17.77-2c-3-.17-6-.33-9-.53-1.46-.11-2.92-.21-4.37-.34-1-.09-2.05-.27-3.07-.34.12-.4.24-.79.35-1.19a24.35,24.35,0,0,0,3.68.46c1.47.15,3,.23,4.43.28,3.05.11,6.11.09,9.16.09,6.19,0,12.42.14,18.5,1.46.2,0,.38-.18.12-.25-5.84-1.53-11.87-1.71-17.87-1.74-3.06,0-6.12,0-9.17-.07-1.56,0-3.12-.11-4.67-.22L28,493.16c-.65-.06-1.33-.24-2-.27.21-.81.4-1.63.56-2.46a34,34,0,0,0,3.78,0l4.37.07c3,.05,6.07.13,9.11.27a159.15,159.15,0,0,1,18.23,1.94c.21,0,.41-.19.13-.26a98.1,98.1,0,0,0-18.08-2.22c-3.12-.16-6.23-.24-9.35-.28-1.53,0-3.07,0-4.6,0H27.89c-.42,0-.82,0-1.22,0a44.08,44.08,0,0,0,.66-6.7c1,0,1.92-.12,2.84-.16,1.57-.06,3.13-.11,4.7-.14q5-.09,10,.1A122.3,122.3,0,0,1,64,485.22c.1,0,.19-.09.06-.12a83.06,83.06,0,0,0-19-2.68c-3.16-.15-6.33-.17-9.5-.13-1.65,0-3.3.07-4.94.13-1.06,0-2.21,0-3.3.11a53.63,53.63,0,0,0-.34-6.72c.89,0,1.79,0,2.67.07l4.86.17c3.25.1,6.5.2,9.75.37a164.14,164.14,0,0,1,19.78,2.07c.11,0,.21-.11.07-.14a120.77,120.77,0,0,0-19.32-2.42c-3.25-.19-6.5-.31-9.75-.41L30,475.38c-1,0-2-.11-3-.12-.2-1.65-.47-3.28-.81-4.86a21,21,0,0,0,3.88-.11l4.39-.13c3.16-.07,6.33-.09,9.49,0a108.24,108.24,0,0,1,18.31,1.93c.18,0,.34-.15.11-.21a77.55,77.55,0,0,0-18.14-2.26c-3-.08-6-.07-9,0-1.55,0-3.09.07-4.63.12l-2.29.08a11.49,11.49,0,0,0-2.21.11c-.16-.74-.33-1.46-.52-2.17.9,0,1.81-.12,2.7-.14,1.68,0,3.37-.06,5.06,0,3.2,0,6.4.2,9.59.4,6.3.4,12.59,1.07,18.91,1.14.15,0,.17-.15,0-.17-6.45-.58-12.91-1.12-19.37-1.53-3.2-.21-6.39-.36-9.59-.4-1.52,0-3,0-4.55,0-.95,0-1.95,0-2.92.09a48.88,48.88,0,0,0-2.11-6.06c1,.06,2.07,0,3.07-.06,1.5,0,3-.09,4.51-.15,3-.11,5.9-.22,8.86-.27a138.89,138.89,0,0,1,17.89.83c.15,0,.24-.17.06-.21A81,81,0,0,0,40,460c-3,0-6,.14-8.92.25l-4.5.17c-1.18,0-2.4,0-3.58.12-.27-.61-.55-1.2-.84-1.78a65.19,65.19,0,0,0,7.15-.46c3-.22,5.94-.45,8.91-.65,6-.41,12.08-.61,18.13-.44.14,0,.16-.15,0-.16a120.45,120.45,0,0,0-17.82.06c-3,.18-6,.42-8.92.63-2.52.19-5.2.14-7.72.52l-.05-.1c-2.85-5.45-5.15-10.48-7-15.09a28.9,28.9,0,0,0,4.16-.19l4.47-.16q4.58-.13,9.15-.22c6-.13,12-.09,18-.6.12,0,.09-.13,0-.13-6.06-.1-12.13.11-18.18.21-3,.05-6.11.12-9.16.21l-4.46.16c-.83,0-1.66.09-2.49.12a8.41,8.41,0,0,0-1.7.1,118.06,118.06,0,0,1-4.08-11.94.44.44,0,0,0,.2.08,14.37,14.37,0,0,0,3.83-.45c1.47-.19,2.94-.36,4.4-.5,2.89-.27,5.78-.45,8.67-.59,5.73-.27,11.47-.36,17.18-.89.19,0,.09-.19-.06-.19-5.69.2-11.38.3-17.06.55-2.82.12-5.63.28-8.44.53-1.39.13-2.79.28-4.17.46s-3.28.19-4.5.83a.29.29,0,0,0-.08.07c-2.55-9.17-3.08-16.09-2.83-21,0-.63.09-1.58.22-2.79l.13,0a2.21,2.21,0,0,1,.06-.34l-.13,0H8c.2-1.82.53-4.19,1.1-6.93,1.12.22,2.29.27,3.42.39l4.44.46q4.45.48,8.89,1,8.91,1.11,17.76,2.49c.28,0,.42-.3.1-.36q-8.74-1.53-17.57-2.64-4.44-.57-8.89-1.06l-4.44-.47a33.42,33.42,0,0,0-3.6-.32,73,73,0,0,1,3.56-11.77c2.29.94,5,1.18,7.45,1.68q4,.83,8.09,1.61c5.15,1,10.34,2,15.56,2.62.18,0,.28-.19.07-.24-5.27-1.08-10.59-1.93-15.86-3-2.61-.52-5.22-1.06-7.83-1.6l-3.91-.82a15.17,15.17,0,0,0-3.32-.56l-.15,0c.32-.79.66-1.59,1-2.39a24.77,24.77,0,0,0,3.83.68c1.4.23,2.81.48,4.21.76,2.75.53,5.49,1.14,8.23,1.77,5.2,1.19,10.43,2.59,15.74,3.28.21,0,.32-.22.08-.27-5.42-1.26-10.85-2.44-16.26-3.69-2.66-.61-5.32-1.2-8-1.72-1.3-.26-2.6-.49-3.91-.7a15.13,15.13,0,0,0-3.78-.43c.3-.66.61-1.32.94-2,.76.17,1.53.29,2.27.44l4.12.84,8.78,1.77q4.22.85,8.45,1.65a61.84,61.84,0,0,0,8,1.35c.13,0,.2-.12.05-.17a74.45,74.45,0,0,0-8-1.69l-8.67-1.75-8.54-1.74-4.11-.84c-.67-.13-1.34-.31-2-.44.35-.7.71-1.39,1.09-2.08.72.15,1.43.27,2.14.42,1.44.31,2.88.62,4.32,1,3,.67,5.92,1.37,8.88,2.07,5.68,1.33,11.37,2.62,17.14,3.51.2,0,.31-.21.08-.25-5.78-1.1-11.51-2.42-17.23-3.78-2.79-.67-5.58-1.34-8.38-2q-2.16-.5-4.32-1c-.75-.16-1.53-.37-2.32-.53a60.21,60.21,0,0,1,3.63-5.63c2.31.52,4.66.9,7,1.44,2.83.65,5.64,1.37,8.45,2.11,5.62,1.47,11.22,3.05,16.91,4.27.14,0,.26-.12.08-.17-5.66-1.55-11.31-3.13-17-4.64-2.73-.73-5.46-1.43-8.21-2.07C25.26,374,23,373.36,20.67,373c.31-.42.64-.85,1-1.27q7.55,1.77,15.06,3.7c5.39,1.39,10.79,3,16.27,4,.15,0,.28-.12.09-.18-5.26-1.74-10.74-3-16.11-4.35-5-1.29-9.93-2.56-14.92-3.7q.59-.72,1.2-1.44c2.16.78,4.55,1.18,6.74,1.81,2.68.77,5.35,1.59,8,2.38a117.5,117.5,0,0,0,15.68,3.82c.14,0,.2-.13,0-.17-5.29-1.21-10.51-2.66-15.7-4.22-2.52-.76-5-1.53-7.57-2.26-1.31-.37-2.61-.74-3.93-1.09-.94-.25-1.91-.58-2.89-.74.52-.59,1.05-1.17,1.61-1.74a.22.22,0,0,0,.14.08c2.42.77,4.95,1.29,7.4,2s4.9,1.41,7.34,2.12a132.82,132.82,0,0,0,15,3.58c.18,0,.36-.17.11-.22-5.08-1-10.08-2.45-15.05-3.91-4.75-1.4-9.59-3.18-14.48-4h-.1a54.51,54.51,0,0,1,4.16-3.81c2.07.84,4.4,1.29,6.52,1.94,2.49.76,5,1.54,7.47,2.29a106,106,0,0,0,14.77,3.61c.17,0,.25-.17.06-.21-5-1.12-9.91-2.46-14.81-4l-7.23-2.25c-1.21-.38-2.42-.75-3.63-1.1-.86-.25-1.74-.57-2.63-.75.38-.29.75-.59,1.14-.88.74-.56,1.49-1.09,2.25-1.61.89.21,1.8.34,2.69.54,1.29.28,2.57.6,3.85.92,2.66.67,5.3,1.41,8,2.13a87.08,87.08,0,0,0,15,3.2c.22,0,.35-.25.08-.29a153.81,153.81,0,0,1-15.56-3.6c-2.56-.71-5.13-1.42-7.71-2.07-1.36-.34-2.72-.65-4.09-.94l-1.59-.33c1.6-1.07,3.25-2.05,4.91-2.94,1.05.28,2.16.41,3.22.62,1.25.24,2.49.51,3.74.8,2.41.55,4.82,1.17,7.22,1.81,4.57,1.21,9.25,2.8,14,3.37.21,0,.3-.19.07-.26-2.33-.72-4.76-1.2-7.12-1.83s-4.9-1.32-7.35-2-5-1.29-7.46-1.85A40.13,40.13,0,0,0,40,356.72a75.44,75.44,0,0,1,10.39-4.36c2.26.56,4.62.75,6.89,1.26s4.28,1,6.41,1.59a121.61,121.61,0,0,0,12.89,3c.13,0,.2-.14,0-.17-4.53-.92-9-2.21-13.41-3.43-2.19-.61-4.39-1.18-6.62-1.65a29.4,29.4,0,0,0-5.21-.93c.5-.16,1-.32,1.48-.46a.19.19,0,0,0,.1.05,55.61,55.61,0,0,0,7,1.25q3.3.6,6.58,1.28l6.49,1.34a44.44,44.44,0,0,0,6.36,1.16c.13,0,.18-.12,0-.16A57.73,57.73,0,0,0,72.88,355c-2.23-.48-4.47-1-6.71-1.44s-4.52-.92-6.8-1.32a33.12,33.12,0,0,0-5.7-.87c2.42-.71,4.76-1.28,6.93-1.74-.11.05-.14.16,0,.21,2.06.55,4.27.67,6.37,1s4.37.77,6.56,1.17c4.12.77,8.29,1.72,12.47,2.1.17,0,.27-.18.07-.22-4.32-.92-8.72-1.61-13.07-2.42-2.09-.39-4.2-.77-6.31-1.12a30.42,30.42,0,0,0-6-.76c.83-.18,1.65-.34,2.42-.48a.56.56,0,0,0,.19.09,98,98,0,0,0,12.72,2.39c4.37.67,8.76,1.37,13.17,1.76.42,0,.65-.43.16-.55-4-1-8.19-1.65-12.31-2.3a116.75,116.75,0,0,0-12.25-1.69c1.33-.22,2.57-.39,3.68-.53-.07.1,0,.2.27.26,3,.64,6.08.84,9.11,1.19.5.06.52-.45,0-.52-2.54-.38-5.14-.93-7.72-1.13,2.73-.29,4.39-.34,4.45-.34v-.6c4.19,1,8.46,1.83,12.73,2.5a80.57,80.57,0,0,0,10.69,1.21,87.2,87.2,0,0,0-27.28,12.34c-13.4,9.23-26.5,27.71-26.72,48.4a1.2,1.2,0,0,1,0,1.12,48.48,48.48,0,0,0,.47,6.21c1.71,12.24,7.28,25,12.19,36.21,1.55,3.55,3,6.92,4.31,10.1a78.52,78.52,0,0,0-17.3-1.83c-2.85,0-5.7,0-8.55,0l-4.33.07a30.31,30.31,0,0,0-4.86.19c-.29.06-.12.25.08.28,2.58.44,5.47.07,8.09,0,3.09-.05,6.19-.09,9.29-.06a118.19,118.19,0,0,1,17.62,1.45h0c2.4,6,4.11,11.23,4.29,15.5.23,5.64-1.47,12.33-3.93,19.57a102.34,102.34,0,0,0-18-2.2c-3.13-.18-6.25-.3-9.38-.39l-4.69-.13c-1.34,0-2.95-.37-4.22.05-.19.06-.06.2.07.23a19,19,0,0,0,4.6.26l4.7.14c3,.09,6.08.2,9.12.37,6,.34,11.86,1.09,17.79,1.83-1.36,4-3,8.17-4.57,12.42-2.75,7.22-5.6,14.68-7.79,22.35-.39,1.38-.81,2.84-1.25,4.36-1.84,6.33-4.05,13.92-5.9,22.31q-8.79-1.54-17.7-2.32-4.53-.4-9.07-.53c-1.55,0-3.11-.06-4.67,0-1.33,0-3-.23-4.19.26-.19.07-.08.21.06.24,1.56.37,3.46,0,5.08,0,1.47,0,2.95,0,4.42.07,2.94.09,5.89.28,8.82.53,5.75.5,11.48,1.28,17.21,2-.14.61-.27,1.22-.4,1.84-5.75-.65-11.54-.9-17.32-1q-4.11-.06-8.22,0c-1.47,0-2.94.07-4.42.13s-3.4-.13-4.79.37c-.23.08,0,.21.13.23a19.73,19.73,0,0,0,4.34-.08c1.48,0,2.95-.09,4.43-.12,3-.06,6-.06,9,0,5.61.09,11.22.4,16.82.65-.65,3.12-1.25,6.34-1.75,9.63a154.41,154.41,0,0,0-17.45-1.36q-4.23-.09-8.46.05-2.2.07-4.41.21c-1.5.09-3.39-.06-4.78.44-.2.07,0,.19.12.21a23.3,23.3,0,0,0,4.55-.23c1.39-.08,2.78-.13,4.18-.17,3.08-.09,6.17-.09,9.25,0,5.67.11,11.33.51,17,1-2.62,17.18-2.76,36.41,4.6,54.38,5.18,12.65,11.91,26.53,22.93,36.48-3.72-.38-7.48-.44-11.22-.5-1.86,0-3.73,0-5.6-.11-1,0-1.95,0-2.92-.09a8.61,8.61,0,0,0-3.24,0c-.23.08-.07.24.07.28,1.7.54,3.77.33,5.56.38,2,.06,3.9.08,5.85.1,3.9,0,7.81.11,11.71.18h0c.71.63,1.44,1.24,2.18,1.84-3.45,0-6.9-.12-10.34-.26-1.64-.07-3.27-.14-4.91-.18-.89,0-1.79,0-2.68-.06A11.31,11.31,0,0,0,49.18,666.47Zm18.26,4.22c-1.19-.29-2.63-.55-4.31-.86s-3.31-.6-5.21-1l4.48,0c3.06,0,6.17.23,9.22.07.17,0,.19-.2,0-.24a55.74,55.74,0,0,0-9.67-.38H56.84c-.56,0-1.18-.06-1.81-.09-1.31-.33-2.67-.69-4.07-1.12l.64,0,2.69.05,5.15.17c3.4.11,6.79.19,10.18,0,.12,0,.16-.07.16-.13,1,.8,2,1.57,3.1,2.3h0L69,669.37a21.31,21.31,0,0,0-5.05.18c-.3.08-.14.27.08.3a38.15,38.15,0,0,0,5.66.07c1.29,0,2.59,0,3.88,0,.62.41,1.24.79,1.87,1.17a20.13,20.13,0,0,0-7.42-.24Zm9.5,2.09.7,0c.18,0,.3-.2.07-.25-.79-.15-1.58-.27-2.38-.38a9.11,9.11,0,0,0-2.59-.28l-2.74-.6c.55,0,1.09-.07,1.63-.07,1.29,0,2.59.09,3.88.19a.21.21,0,0,0,.24-.17c1.27.75,2.56,1.46,3.9,2.1C78.73,673.16,77.83,673,76.94,672.78ZM206.33,639c-1.39,1.22-2.77,2.58-4.23,4-9.49,9.32-22.5,22.1-69.72,31.72a115.74,115.74,0,0,1-28.61,2.63,70.87,70.87,0,0,1-8.29-.89l-2.88-.56c-23.68-5.14-36.27-22.86-46.66-48.22-12.73-31.1-2.49-66.38,3.63-87.46.44-1.53.87-3,1.26-4.37,2.16-7.6,5-15,7.73-22.19,4.66-12.2,9-23.72,8.67-32.89-.28-6.92-4.23-16-8.81-26.42C53.56,443.24,48,430.63,46.36,418.64c-3.19-22.79,11-43.94,25.48-53.94a83,83,0,0,1,28.87-12.55l0-.1.15,0v.07s0,0,0,0l6.57,86.09,2-.63a33.67,33.67,0,0,0-4.17,14.73,34.8,34.8,0,0,0,.62,8.42c0,.19.07.38.11.57s.07.35.11.52c.14.64.31,1.28.5,1.91,2.36,7.94,7.54,14.21,14.14,16.85l7.78,91.95,1.39-.12-7.73-91.31a19.5,19.5,0,0,0,4.11.77l7.49,85.81,1.4-.12-7.48-85.64a18.11,18.11,0,0,0,4.29-.5l7.77,85.05,1.39-.13L133.36,481a20.76,20.76,0,0,0,4.12-1.84l8.09,85.76,1.4-.13-8.16-86.45a24.87,24.87,0,0,0,4.83-4.32l8.81,89.12,1.39-.14-9-90.55a30.77,30.77,0,0,0,4.17-7.75l10,96.5,1.4-.14L150.11,461.3a34.74,34.74,0,0,0-.28-18c0-.24-.08-.5-.17-.51a29.74,29.74,0,0,0-2-4.93l-9.54-91.66a62.4,62.4,0,0,1,6.88-.29c1.63.08,3.27.1,5,.12,12,.15,25.62.31,38.11,19.91,12.08,18.95,9.44,33.32,5.45,55.07-.77,4.16-1.56,8.47-2.32,13.18-4.09,25.28,1.19,32.86,9.93,45.4,1.78,2.56,3.62,5.19,5.59,8.27C218,505.32,232.94,532.76,233,569,233,605.78,215.55,630.88,206.33,639Z"/><path class="cls-1" d="M84.37,354.73c-4.39-.89-8.78-1.76-13.17-2.67-2-.41-4-.8-6-1.12a31.77,31.77,0,0,0-6.66-.62c-.23,0-.21.17,0,.21,2,.39,4.13.51,6.17.82,2.34.36,4.67.82,7,1.3A123.32,123.32,0,0,0,84.29,355C84.51,355,84.63,354.78,84.37,354.73Z"/><path class="cls-1" d="M81.27,355.27c.11,0,.1-.11,0-.14A40.91,40.91,0,0,0,75.65,354l-6.29-1.21c-2.17-.41-4.34-.81-6.52-1.17-1.84-.3-4-.91-5.85-.7-.21,0-.37.18-.09.27a50.91,50.91,0,0,0,6.54,1.05c2.18.36,4.35.76,6.52,1.17s4.16.79,6.24,1.16A25.74,25.74,0,0,0,81.27,355.27Z"/><path class="cls-1" d="M74.77,359.51c-4.49-.94-8.9-2.13-13.35-3.23-2.19-.54-4.38-1.06-6.59-1.48-1.91-.37-4.18-1-6.12-.75-.21,0-.37.18-.09.26,2.13.62,4.48.69,6.67,1.12s4.41.95,6.6,1.48c4.25,1,8.49,2.14,12.83,2.79C74.86,359.72,74.93,359.55,74.77,359.51Z"/><path class="cls-1" d="M72.26,360.48a138.94,138.94,0,0,1-14.14-3c-2.27-.58-4.53-1.17-6.81-1.7-1.06-.24-2.13-.47-3.2-.68s-2.45-.74-3.52-.48c-.14,0-.26.15-.08.24a17.88,17.88,0,0,0,3.82.8c1.07.22,2.13.45,3.2.7,2.35.55,4.69,1.15,7,1.74a89.56,89.56,0,0,0,13.67,2.6C72.42,360.68,72.42,360.51,72.26,360.48Z"/><path class="cls-1" d="M69.46,361.44c-4.56-.92-9.06-1.88-13.56-3.07-2.23-.6-4.47-1.18-6.72-1.69a23.39,23.39,0,0,0-6.13-1c-.19,0-.32.17-.08.24,2.21.67,4.6.9,6.86,1.42s4.33,1.09,6.49,1.65c4.27,1.11,8.66,2.39,13.09,2.59C69.54,361.62,69.62,361.47,69.46,361.44Z"/><path class="cls-1" d="M64.9,365q-6.63-1.35-13.16-3.11c-2.16-.59-4.31-1.18-6.47-1.74a29,29,0,0,0-6.41-1.36c-.11,0-.5.12-.23.22a67.71,67.71,0,0,0,6.63,1.68c2.16.55,4.32,1.14,6.48,1.71a83.9,83.9,0,0,0,13.13,2.74C65,365.14,65,365,64.9,365Z"/><path class="cls-1" d="M60.63,369.24c-2.14-.9-4.45-1.51-6.66-2.2s-4.55-1.41-6.85-2.05-4.6-1.22-6.94-1.7c-2.09-.43-4.55-1.14-6.69-.91-.21,0-.37.2-.09.28,2.23.68,4.69.77,7,1.25s4.49,1,6.72,1.64,4.43,1.27,6.64,1.94,4.46,1.49,6.74,1.95C60.61,369.46,60.83,369.32,60.63,369.24Z"/><path class="cls-1" d="M57.59,373.66c-5-1.51-10-3.15-14.92-4.76-2.41-.78-4.82-1.53-7.27-2.18-2.23-.6-4.81-1.54-7.15-1.44-.22,0-.34.18-.08.27,2.21.81,4.69,1.07,7,1.68,2.52.67,5,1.44,7.5,2.24,4.9,1.57,9.78,3.33,14.81,4.46C57.68,374,57.88,373.74,57.59,373.66Z"/><path class="cls-1" d="M50.21,382.11c-5-1.55-10.17-2.87-15.28-4.15-2.49-.62-5-1.21-7.49-1.76-1.34-.3-2.68-.58-4-.85a14.68,14.68,0,0,0-3.35-.51c-.14,0-.45.18-.18.28,2.29.85,4.92,1.07,7.3,1.59,2.59.56,5.16,1.17,7.73,1.8C40,379.76,45,381.2,50.07,382.37,50.3,382.43,50.48,382.19,50.21,382.11Z"/><path class="cls-1" d="M48.23,383.63c-5-1.26-10-2.29-15-3.36-2.43-.52-4.86-1-7.3-1.52L22,378a13.73,13.73,0,0,0-3.17-.47c-.15,0-.46.18-.18.29a44.08,44.08,0,0,0,7,1.49q3.78.75,7.55,1.55c5,1,9.92,2.17,14.9,3.1C48.33,384,48.56,383.71,48.23,383.63Z"/><path class="cls-1" d="M45.67,396.14c-5.46-1.42-11-2.44-16.53-3.52-2.7-.53-5.39-1.07-8.08-1.64-1.43-.3-2.85-.62-4.26-.94a19,19,0,0,0-3.91-.8c-.14,0-.59.14-.28.28,2.41,1.09,5.35,1.42,7.93,2,2.77.59,5.55,1.13,8.34,1.66q8.34,1.58,16.69,3.18C45.73,396.35,45.87,396.19,45.67,396.14Z"/><path class="cls-1" d="M43.64,398.49c-5.29-1.51-10.86-2.32-16.27-3.33-2.7-.5-5.41-1-8.12-1.48l-4.09-.74a17.76,17.76,0,0,0-3.62-.46c-.24,0-.36.18-.09.28,2.57.92,5.56,1.12,8.24,1.59l8.13,1.46c5.24,1,10.48,2.21,15.76,2.89C43.75,398.72,43.83,398.54,43.64,398.49Z"/><path class="cls-1" d="M44,400.65c-5.66-.67-11.31-1.44-16.95-2.25l-8.34-1.2-4.18-.58a20.39,20.39,0,0,0-4-.37c-.23,0-.39.2-.1.29a55.54,55.54,0,0,0,8,1.19l8.6,1.21c5.63.79,11.28,1.54,17,2C44.29,401,44.31,400.68,44,400.65Z"/><path class="cls-1" d="M42.43,406.6c-5.19-1-10.44-1.58-15.69-2.16-2.61-.28-5.22-.58-7.83-.93-1.44-.19-2.89-.41-4.33-.64a24.72,24.72,0,0,0-4-.61c-.12,0-.57.15-.26.26a35.34,35.34,0,0,0,7.31,1.38c2.77.38,5.54.69,8.32,1,5.47.58,11,1.1,16.38,2C42.56,406.9,42.67,406.65,42.43,406.6Z"/><path class="cls-1" d="M42.18,411.57c-5.19-1-10.44-1.58-15.69-2.15-2.61-.29-5.22-.58-7.82-.94-1.45-.19-2.9-.41-4.34-.64a25.57,25.57,0,0,0-4-.61c-.13,0-.58.15-.27.26a34.79,34.79,0,0,0,7.32,1.38c2.76.38,5.54.69,8.31,1,5.47.58,11,1.11,16.39,2C42.31,411.87,42.42,411.62,42.18,411.57Z"/><path class="cls-1" d="M42.25,409.08c-5.67-.8-11.36-1.45-17-2.09L17,406l-4.32-.51a19.1,19.1,0,0,0-3.91-.36c-.24,0-.4.21-.1.3a21.42,21.42,0,0,0,3.73.57l4.32.5,8.49.93,17.08,1.82C42.43,409.31,42.44,409.11,42.25,409.08Z"/><path class="cls-1" d="M42.31,413.42q-8.36-.76-16.7-1.67l-8.24-.9-4.11-.44a20.3,20.3,0,0,0-4-.28c-.22,0-.39.2-.1.28,2.48.7,5.32.67,7.88.94l8.5.9c5.56.57,11.13,1.12,16.71,1.45C42.54,413.71,42.56,413.45,42.31,413.42Z"/><path class="cls-1" d="M18.73,415.67c2.65.15,5.29.21,7.93.26,5.35.07,10.71,0,16.06.18.12,0,.14-.13,0-.14-5.34-.36-10.69-.4-16-.5-2.56-.06-5.12-.13-7.68-.28-1.36-.08-2.71-.18-4.06-.3a13,13,0,0,0-3.77-.27c-.21.05-.2.2,0,.26C13.51,415.62,16.3,415.54,18.73,415.67Z"/><path class="cls-1" d="M19,419.35c2.65-.1,5.31-.15,8-.17,5.19,0,10.36.12,15.54.2.13,0,.14-.13,0-.14-5.32-.43-10.68-.53-16-.52q-3.73,0-7.45.11c-2.46.07-5.23-.14-7.62.45-.28.07-.14.26.08.28C14,419.88,16.61,419.43,19,419.35Z"/><path class="cls-1" d="M19.82,421.63c2.68-.06,5.36-.09,8-.11,4.85,0,9.7.12,14.54,0,.12,0,.09-.13,0-.14-5-.44-10-.4-15-.38-2.33,0-4.67,0-7,.08a44.94,44.94,0,0,0-7.7.3c-.27.05-.12.23.07.26A44.87,44.87,0,0,0,19.82,421.63Z"/><path class="cls-1" d="M19,424.4q4.08-.06,8.15-.16c5.52-.12,11.09-.05,16.59-.39.25,0,.18-.26,0-.28-5.31-.32-10.71,0-16,.14-2.88.07-5.77.13-8.65.15-2.63,0-5.5-.3-8.09.15-.27,0-.1.22.07.25C13.53,424.75,16.39,424.43,19,424.4Z"/><path class="cls-1" d="M19.2,427.41c1.13-.11,2.26-.2,3.39-.29,2.43-.18,4.86-.31,7.29-.41,4.82-.21,9.66-.21,14.47-.57.18,0,.13-.21,0-.21-4.78-.05-9.58.1-14.35.29q-3.66.13-7.3.4c-1.21.08-2.42.19-3.63.3a14.26,14.26,0,0,0-3.53.51c-.23.09,0,.24.14.25A19.3,19.3,0,0,0,19.2,427.41Z"/><path class="cls-1" d="M16.7,433.61c1.4-.23,2.79-.44,4.19-.62,2.82-.36,5.65-.63,8.49-.84,5.62-.42,11.25-.57,16.87-.83.18,0,.14-.2,0-.2-5.67,0-11.36.13-17,.54-2.84.21-5.67.48-8.49.84A41.5,41.5,0,0,0,12.28,434c-.3.1.19.22.28.22A36.32,36.32,0,0,0,16.7,433.61Z"/><path class="cls-1" d="M18.88,435.17l3.91-.23q3.67-.18,7.35-.32c5.08-.2,10.15-.33,15.22-.66.19,0,.14-.22,0-.22-5,.06-10.07.2-15.11.37-2.53.09-5.07.19-7.6.32-1.3.07-2.61.14-3.92.23a13.35,13.35,0,0,0-3.57.39c-.24.08,0,.23.14.25A19,19,0,0,0,18.88,435.17Z"/><path class="cls-1" d="M18.21,437.4l4.32-.17q4.53-.17,9.07-.2c5.75,0,11.49.11,17.24.28.19,0,.21-.19,0-.21-5.88-.54-11.81-.64-17.71-.6-2.77,0-5.55.08-8.32.17-1.52.05-3,.12-4.55.19l-2.15.11a7.17,7.17,0,0,0-2.53.28c-.18.08-.08.22.07.25C15.06,437.84,16.77,437.47,18.21,437.4Z"/><path class="cls-1" d="M20.23,439.67c1.34-.07,2.69-.13,4-.17q4.24-.15,8.49-.14c5.38,0,10.72.35,16.09.6.16,0,.17-.15,0-.17a117.21,117.21,0,0,0-16.54-1c-2.58,0-5.17,0-7.75.12-1.42.05-2.84.11-4.27.19s-3.1-.12-4.37.4c-.23.1,0,.22.14.25A17.16,17.16,0,0,0,20.23,439.67Z"/><path class="cls-1" d="M25.18,445.74q4.41-.28,8.82-.53c5.82-.32,11.63-.53,17.45-.79.15,0,.12-.18,0-.18-5.79-.07-11.57.16-17.35.46q-4.29.23-8.58.51c-2.83.19-5.9.09-8.67.72-.25.06-.13.23.07.25C19.59,446.43,22.48,445.92,25.18,445.74Z"/><path class="cls-1" d="M26.61,448.28c2.77-.21,5.53-.42,8.3-.58,5.58-.32,11.15-.41,16.73-.2.19,0,.21-.19,0-.21a103.59,103.59,0,0,0-16.43-.14q-4.15.23-8.31.56a52.85,52.85,0,0,0-8.06.74c-.25.06-.13.23.07.25C21.42,449,24.11,448.46,26.61,448.28Z"/><path class="cls-1" d="M23.08,451l4.35-.32c3-.2,6-.36,9-.5,5.89-.27,11.79-.36,17.69-.57.15,0,.11-.18,0-.18-5.86-.14-11.73,0-17.58.25-2.92.12-5.84.27-8.76.47-1.53.1-3.07.21-4.6.33A25.25,25.25,0,0,0,19,451c-.26.07-.15.25.07.27A23.58,23.58,0,0,0,23.08,451Z"/><path class="cls-1" d="M28,453.26c2.84-.2,5.68-.42,8.52-.61a169.06,169.06,0,0,1,17.29-.36c.16,0,.17-.15,0-.17a103.51,103.51,0,0,0-17,0c-2.85.17-5.69.39-8.53.6s-5.64.08-8.3.64c-.27.05-.13.23.07.26C22.65,453.91,25.45,453.45,28,453.26Z"/><path class="cls-1" d="M24.82,455.8l4.38-.19c2.84-.14,5.68-.3,8.52-.43,5.84-.28,11.66-.36,17.5-.35.25,0,.28-.25,0-.27a147.64,147.64,0,0,0-17,.07c-2.84.12-5.68.27-8.53.41l-4.13.2-2.19.1a8.17,8.17,0,0,0-2.57.22c-.18.07-.07.2.06.23A15,15,0,0,0,24.82,455.8Z"/><path class="cls-1" d="M43.51,466.07c5.71.55,11.5,1.29,17.25,1.1.19,0,.14-.21,0-.22-5.9-.43-11.78-.89-17.67-1.46-2.88-.28-5.75-.54-8.64-.72-1.48-.09-3-.16-4.45-.19a17,17,0,0,0-3.91.12c-.29.06-.13.24.07.28a28.76,28.76,0,0,0,4.05.15c1.48,0,3,.11,4.45.2C37.6,465.51,40.55,465.79,43.51,466.07Z"/><path class="cls-1" d="M30.89,473.28l4.23-.12c3-.07,6.07-.09,9.11,0a124,124,0,0,1,16.87,1.62c.27,0,.4-.27.1-.34A82.57,82.57,0,0,0,44,472.59c-2.8-.07-5.59-.06-8.39,0-1.49,0-3,.07-4.46.12a23.24,23.24,0,0,0-4.26.3c-.28.06-.13.25.07.27A22.09,22.09,0,0,0,30.89,473.28Z"/><path class="cls-1" d="M37.1,479.29c3.09,0,6.19,0,9.28.18a140,140,0,0,1,18.39,1.95c.27,0,.51-.24.16-.32a102.08,102.08,0,0,0-18.28-2.17c-3.08-.13-6.18-.18-9.27-.19-1.57,0-3.14,0-4.71,0a22.89,22.89,0,0,0-4.14.19c-.28.06-.12.25.08.28a22.47,22.47,0,0,0,4,.08C34.12,479.29,35.61,479.28,37.1,479.29Z"/><path class="cls-1" d="M39,480.84c2.82.06,5.62.22,8.43.44,5.54.42,11.06,1.12,16.6,1.57.2,0,.21-.19,0-.22-5.65-.87-11.36-1.49-17.07-1.91q-4.2-.32-8.42-.41c-1.42,0-2.83,0-4.24,0s-3-.2-4.26.28c-.26.09,0,.23.15.26a24.28,24.28,0,0,0,4.82,0C36.33,480.79,37.66,480.8,39,480.84Z"/><path class="cls-1" d="M38.82,484.81c2.77.09,5.55.22,8.32.39,5.49.36,10.85,1.13,16.27,2,.23,0,.33-.22.08-.29-5.24-1.48-10.9-1.88-16.31-2.22-2.77-.18-5.55-.3-8.32-.4l-4.32-.14c-1.27,0-2.9-.44-4.06,0-.2.08-.07.2.07.25a15.62,15.62,0,0,0,4.17.27Z"/><path class="cls-1" d="M36.85,485.8q4.38.15,8.75.49c5.85.46,11.54,1.47,17.31,2.47.16,0,.29-.12.1-.19-5.3-1.75-11.14-2.3-16.67-2.78-2.84-.24-5.69-.4-8.54-.52l-4.31-.14-2.24-.05a5.63,5.63,0,0,0-2.49.12c-.21.09-.08.22.07.27a12.93,12.93,0,0,0,3.94.21Q34.81,485.73,36.85,485.8Z"/><path class="cls-1" d="M37.17,488.21c2.81.06,5.61.21,8.42.41,5.6.4,11.18,1.1,16.78,1.52.2,0,.2-.17,0-.2-5.63-.91-11.32-1.48-17-1.89-2.8-.2-5.61-.35-8.42-.41-1.4,0-2.81,0-4.21,0s-3-.24-4.24.25c-.19.08-.09.23.07.26a20,20,0,0,0,4.38.05C34.36,488.16,35.76,488.17,37.17,488.21Z"/><path class="cls-1" d="M31.78,504.3c2.92.14,5.85.37,8.76.62,5.74.51,11.47,1.19,17.23,1.37.2,0,.22-.2,0-.22-5.89-.6-11.78-1.21-17.68-1.72-2.92-.25-5.84-.46-8.77-.59-2.62-.11-5.6-.49-8.18,0-.28.06-.13.24.07.28a32.7,32.7,0,0,0,4.43.09C29,504.19,30.4,504.24,31.78,504.3Z"/><path class="cls-1" d="M55.85,508.2c.15,0,.11-.17,0-.17-5.73-.14-11.43-.41-17.13-.91l-8.32-.74L26,506a21.46,21.46,0,0,0-4-.15c-.19,0-.37.19-.09.26,2.62.59,5.53.49,8.2.72,2.94.26,5.88.54,8.82.79A116.91,116.91,0,0,0,55.85,508.2Z"/><path class="cls-1" d="M55.17,510.7C49.6,510,44,509.61,38.42,509.16q-4.06-.33-8.14-.62l-4.19-.29a19.34,19.34,0,0,0-4.16-.11c-.25,0-.24.24,0,.3a20.09,20.09,0,0,0,3.88.37l4.2.28,8.38.63c5.58.45,11.17,1,16.77,1.23C55.38,511,55.39,510.73,55.17,510.7Z"/><path class="cls-1" d="M27.55,514q4.31.21,8.6.51c5.64.39,11.26.86,16.9,1.21.28,0,.3-.27,0-.29q-8.43-.87-16.88-1.45c-2.78-.2-5.57-.37-8.35-.5-1.39-.07-2.78-.12-4.17-.16a20.8,20.8,0,0,0-4.1,0c-.31,0-.12.24.08.28a24.47,24.47,0,0,0,3.74.21C24.77,513.88,26.16,514,27.55,514Z"/><path class="cls-1" d="M51.4,522.46q-8.73-1.35-17.5-2.34-4.27-.48-8.55-.86a64,64,0,0,0-8.53-.5c-.32,0-.54.41-.1.47,2.82.37,5.74.36,8.59.6s5.86.54,8.79.87c5.76.65,11.51,1.41,17.28,2C51.6,522.71,51.61,522.49,51.4,522.46Z"/><path class="cls-1" d="M47.73,525.05c-10.52-1-21-2.5-31.6-3.08-.34,0-.33.32,0,.36,10.5,1.19,21.05,2.27,31.59,3.06C48,525.42,48.05,525.08,47.73,525.05Z"/><path class="cls-1" d="M32,525.85a138.52,138.52,0,0,0,16.37,1.62c.16,0,.18-.16,0-.18-5.55-.52-11.07-1.27-16.59-2-2.68-.36-5.36-.7-8.06-.94a44.88,44.88,0,0,0-8.19-.32c-.41,0-.25.43.09.46,2.68.23,5.38.18,8.06.42S29.27,525.49,32,525.85Z"/><path class="cls-1" d="M49.2,529.18c.16,0,.17-.15,0-.16-5.52-.42-11-1-16.51-1.75-2.67-.35-5.34-.7-8-1-1.38-.17-2.75-.33-4.13-.47a17.79,17.79,0,0,0-4-.21c-.19,0-.37.19-.08.27,2.51.65,5.34.61,7.92.91,2.75.33,5.5.7,8.25,1A125.79,125.79,0,0,0,49.2,529.18Z"/><path class="cls-1" d="M47.24,532.1c-5.48-1-11-1.63-16.55-2.18-2.8-.28-5.6-.52-8.4-.75l-4.2-.31a19.74,19.74,0,0,0-4.06-.15c-.2,0-.39.2-.09.27a21.6,21.6,0,0,0,3.86.4l4.2.32c2.8.22,5.61.46,8.41.73,5.6.54,11.19,1.19,16.78,1.83C47.31,532.28,47.38,532.13,47.24,532.1Z"/><path class="cls-1" d="M29.86,532.3c5.59.65,11.17,1.55,16.8,1.8.17,0,.18-.16,0-.18q-8.49-1.17-17-2.2c-2.76-.33-5.53-.62-8.3-.81-1.47-.11-2.95-.18-4.42-.22a15.92,15.92,0,0,0-3.65.11c-.31.07-.13.26.09.31a26.24,26.24,0,0,0,3.77.15c1.39,0,2.78.11,4.16.21C24.17,531.66,27,532,29.86,532.3Z"/><path class="cls-1" d="M21.55,534.59c2.88.11,5.75.34,8.61.61,5.72.55,11.42,1.36,17.15,1.81.26,0,.27-.24,0-.28-5.86-.77-11.72-1.55-17.61-2.12-2.86-.28-5.73-.5-8.61-.59-2.62-.09-5.65-.41-8.23.23-.26.06-.13.23.08.26a31,31,0,0,0,4.31,0C18.7,534.51,20.12,534.54,21.55,534.59Z"/><path class="cls-1" d="M27.6,538.06c5.82.65,11.6,1.63,17.43,2.15.14,0,.21-.14,0-.18-5.75-1.15-11.62-1.85-17.44-2.53-3-.34-5.92-.63-8.89-.85-1.44-.11-2.87-.19-4.3-.26a14.8,14.8,0,0,0-4,0c-.21.05-.22.21,0,.27a18.49,18.49,0,0,0,3.94.28c1.44.07,2.87.16,4.3.26C21.67,537.44,24.64,537.73,27.6,538.06Z"/><path class="cls-1" d="M44.15,542.72c-5.31-1.48-11-2-16.48-2.58-5.66-.58-11.38-1-17.07-1.11-.5,0-.51.5,0,.53,5.62.3,11.22.56,16.81,1.11s11.12,1.6,16.71,2.25C44.25,542.94,44.33,542.77,44.15,542.72Z"/><path class="cls-1" d="M43.73,545.09c.14,0,.16-.16,0-.16q-8.62-.43-17.23-1.2-4.23-.37-8.44-.85c-1.46-.17-2.91-.34-4.37-.53a23.83,23.83,0,0,0-3.95-.4c-.19,0-.32.17-.08.25a45.29,45.29,0,0,0,8.13,1.19c2.89.33,5.78.62,8.67.85C32.22,544.71,38,545,43.73,545.09Z"/><path class="cls-1" d="M41.47,547.27c1.22-.44-.92-.87-1.23-.91-2.2-.27-4.45-.23-6.67-.28-4-.09-8-.44-11.94-.64q-3.57-.18-7.14-.32a41.07,41.07,0,0,0-7-.1c-.28,0-.28.21,0,.27a40.88,40.88,0,0,0,5.75.31l5.91.25q6,.28,12.07.64c1.85.1,3.68.11,5.53.15,1,0,1.92.05,2.88.11.4,0,.81,0,1.21.1.12,0,.84,0,.5.27C41.2,547.21,41.38,547.3,41.47,547.27Z"/><path class="cls-1" d="M19.4,548.45c2.62,0,5.25.13,7.87.25,5.25.25,10.45.94,15.68,1.31.14,0,.21-.14,0-.18-5-1.15-10.33-1.37-15.44-1.63-2.63-.14-5.25-.21-7.88-.26q-2,0-3.93-.06c-1.41,0-3.11-.34-4.43.1-.21.07-.05.2.07.24,1.21.44,2.77.15,4.08.17S18.09,548.42,19.4,548.45Z"/><path class="cls-1" d="M15.26,554.61c3,.11,5.93.25,8.88.44,5.9.36,11.79,1.12,17.69,1.39.17,0,.28-.19.07-.23a155.07,155.07,0,0,0-17.22-1.65q-4.32-.28-8.64-.45c-1.47-.06-2.95-.1-4.43-.14l-2.21,0a8.06,8.06,0,0,0-2.64.08c-.11,0-.27.16-.07.23,1.19.45,2.85.19,4.15.23C12.31,554.5,13.79,554.55,15.26,554.61Z"/><path class="cls-1" d="M9.83,557.68l4.39.07c2.85,0,5.71.09,8.56.18,5.67.18,11.35.52,17,1.25.25,0,.26-.23,0-.26a141.56,141.56,0,0,0-17.2-1.5c-2.85-.09-5.71-.12-8.56-.14H9.86a20.27,20.27,0,0,0-4.27.07c-.21,0-.09.18,0,.2A22.51,22.51,0,0,0,9.83,557.68Z"/><path class="cls-1" d="M11,575.51c2.89,0,5.78,0,8.67.12a131.6,131.6,0,0,1,16.93,1.73c.13,0,.19-.12.05-.16-5.37-1.56-11.13-1.9-16.7-2.1-2.8-.11-5.61-.13-8.42-.14l-4.33,0a24.22,24.22,0,0,0-4.26.09c-.31.06-.12.25.07.29a20.42,20.42,0,0,0,3.91.17Z"/><path class="cls-1" d="M20.22,579.87a165,165,0,0,0,16.94,0c.16,0,.12-.2,0-.2q-8.57.07-17.12-.26c-5.7-.23-11.39-.74-17.1-.87-.35,0-.35.34,0,.38C8.65,579.42,14.46,579.64,20.22,579.87Z"/><path class="cls-1" d="M12.92,581.69,21,582a153.15,153.15,0,0,0,15.89.17c.15,0,.11-.17,0-.17-5.35-.23-10.72-.28-16.07-.51L13,581.2c-2.51-.1-5.24-.48-7.73-.12-.26,0-.28.21,0,.26A58.14,58.14,0,0,0,12.92,581.69Z"/><path class="cls-1" d="M8.11,585.93l4.14-.16q4.17-.15,8.32-.26c5.51-.14,11,0,16.53-.33.15,0,.11-.16,0-.17-5.29-.35-10.64-.15-15.94,0-2.69.06-5.39.14-8.08.23l-3.91.15c-1.41,0-3.2-.16-4.52.33-.24.08,0,.22.14.24A14.92,14.92,0,0,0,8.11,585.93Z"/><path class="cls-1" d="M6.05,588.8l4.32-.15c3-.07,5.91-.08,8.87-.06,5.66,0,11.33.22,17,.22.24,0,.27-.25,0-.26-5.82-.23-11.64-.41-17.46-.46-2.7,0-5.4,0-8.11,0-1.44,0-2.88.07-4.32.14a21.13,21.13,0,0,0-4.13.34c-.28.07-.14.26.08.28A22.27,22.27,0,0,0,6.05,588.8Z"/><path class="cls-1" d="M7,591.81l4.21,0c2.82,0,5.64,0,8.45.06,5.5.05,11,.14,16.51-.06.16,0,.12-.18,0-.19-5.56-.19-11.13-.2-16.69-.26l-8.2-.08-4,0a20.52,20.52,0,0,0-4.15.13c-.28.05-.12.23.08.27A20.7,20.7,0,0,0,7,591.81Z"/><path class="cls-1" d="M7.46,595.17c1.26-.07,2.54-.13,3.8-.18,2.77-.1,5.55-.16,8.32-.18,5.19,0,10.38.1,15.57.21.24,0,.27-.24,0-.26-5.25-.41-10.53-.51-15.79-.49q-3.67,0-7.34.14l-4,.18a13.06,13.06,0,0,0-4.16.4c-.25.1,0,.23.14.26A15.12,15.12,0,0,0,7.46,595.17Z"/><path class="cls-1" d="M8.18,599c1.33,0,2.65-.09,4-.11,2.73,0,5.47,0,8.2,0,5.19.1,10.37.4,15.56.66.22,0,.24-.22,0-.24-5.31-.6-10.66-.88-16-1-2.5-.05-5-.06-7.49,0-1.32,0-2.65.06-4,.11a17,17,0,0,0-3.77.31c-.29.08-.15.26.08.3A18.51,18.51,0,0,0,8.18,599Z"/><path class="cls-1" d="M12.1,602q3.95.15,7.87.33c5.22.25,10.44.57,15.65,1,.23,0,.24-.21,0-.24-5.19-.65-10.4-1-15.62-1.28-2.63-.13-5.25-.25-7.88-.35-2.44-.1-5.15-.53-7.57-.14-.2,0-.2.21,0,.26C7,602.06,9.65,601.86,12.1,602Z"/><path class="cls-1" d="M21.12,605.4c4.68.29,9.35.64,14,1,.28,0,.31-.27,0-.3q-7.23-.75-14.49-1.22-3.57-.23-7.14-.4l-3.45-.14a12.22,12.22,0,0,0-3.14.05c-.3.07-.13.25.08.29a48.81,48.81,0,0,0,7,.38Q17.55,605.17,21.12,605.4Z"/><path class="cls-1" d="M36.52,609.5c.29,0,.3-.27,0-.31-5.14-.8-10.29-1.44-15.48-1.89-2.57-.22-5.15-.41-7.73-.54-1.28-.06-2.55-.11-3.84-.15s-2.72-.32-3.85.1c-.2.08-.07.22.07.26a18.85,18.85,0,0,0,4,.22q1.92.06,3.84.15c2.58.13,5.16.32,7.73.54C26.36,608.32,31.44,608.89,36.52,609.5Z"/><path class="cls-1" d="M22.91,610.92a108.71,108.71,0,0,0,15.09.82c.21,0,.16-.25,0-.26-5.27-.22-10.5-.68-15.75-1.19-2.62-.25-5.24-.48-7.87-.62-1.32-.07-2.64-.12-3.95-.12a9.18,9.18,0,0,0-3.27.19c-.28.11,0,.27.17.3a22.67,22.67,0,0,0,4,.09c1.32,0,2.64.09,3.95.16C17.83,610.44,20.37,610.68,22.91,610.92Z"/><path class="cls-1" d="M23.67,617.37c5.08.26,10.19.67,15.28.7.27,0,.29-.26,0-.29-5-.59-10.18-.69-15.26-1-2.47-.13-4.94-.26-7.42-.41l-4-.24a12.94,12.94,0,0,0-3.67-.1c-.22.05-.24.22,0,.28,2.4.61,5.13.48,7.6.63S21.2,617.25,23.67,617.37Z"/><path class="cls-1" d="M15.31,620.15c1.14,0,2.28,0,3.42,0,2.36.05,4.71.15,7.06.26a119.9,119.9,0,0,0,13.4.24c.19,0,.14-.21,0-.22-4.69-.25-9.38-.38-14.07-.6-2.27-.11-4.54-.21-6.81-.25-1.15,0-2.29,0-3.43,0s-2.61-.24-3.74.25c-.21.09-.08.22.08.27C12.46,620.51,14,620.15,15.31,620.15Z"/><path class="cls-1" d="M15.47,622.83l3.67.12,6.87.2c4.73.14,9.46.35,14.19.67.24,0,.25-.22,0-.25-4.7-.57-9.44-.79-14.17-1l-6.87-.21-3.42-.11c-1.34,0-2.86-.42-4.12,0-.15,0-.3.17-.09.27C12.71,623,14.19,622.78,15.47,622.83Z"/><path class="cls-1" d="M15.52,630.5h4c2.66,0,5.31.06,8,.15,5.29.18,10.56.58,15.84,1,.21,0,.22-.2,0-.22a156.85,156.85,0,0,0-16.06-1.33c-2.66-.1-5.31-.15-8-.16-1.33,0-2.66,0-4,0a14.4,14.4,0,0,0-4,.23c-.25.08,0,.22.14.24A21.16,21.16,0,0,0,15.52,630.5Z"/><path class="cls-1" d="M18.65,633.2l4,0c2.56,0,5.13.13,7.7.2,5.08.16,10.17.38,15.25.16.12,0,.09-.14,0-.15-5.31-.2-10.63-.37-15.94-.57-2.65-.09-5.3-.17-7.94-.21-1.33,0-2.65,0-4,0a9.05,9.05,0,0,0-3.25.2c-.2.08-.06.21.07.26C15.75,633.54,17.32,633.2,18.65,633.2Z"/><path class="cls-1" d="M23.51,635.12q3.72,0,7.43.29c5,.32,10,1.05,15,1.46.22,0,.35-.24.09-.29a120.35,120.35,0,0,0-15-1.74c-2.56-.17-5.11-.28-7.67-.31-1.15,0-2.31,0-3.46,0-1.32,0-3-.17-4.19.33-.27.11,0,.25.15.27a16.57,16.57,0,0,0,3.52,0Q21.43,635.11,23.51,635.12Z"/><path class="cls-1" d="M18.43,637.66c1.47-.07,2.95-.09,4.42-.09,2.65,0,5.29.11,7.93.25,5.28.28,10.54.67,15.83.79.17,0,.19-.18,0-.19-5.43-.33-10.85-.85-16.28-1.15-2.64-.14-5.28-.25-7.92-.24-2.43,0-5.21-.22-7.56.44-.27.07-.15.25.07.27A22.74,22.74,0,0,0,18.43,637.66Z"/><path class="cls-1" d="M24.22,643.82c1.42,0,2.83-.06,4.24-.06,2.43,0,4.86.07,7.29.19,5,.25,10,.79,15,1.2.09,0,.15-.1,0-.12a132.71,132.71,0,0,0-15-1.59c-2.59-.14-5.18-.22-7.77-.22-1.17,0-2.33,0-3.5,0a12.44,12.44,0,0,0-4,.33c-.26.1,0,.25.15.27A17.67,17.67,0,0,0,24.22,643.82Z"/><path class="cls-1" d="M27.2,646.68l3.42,0c2.37.06,4.74.18,7.11.33,4.62.3,9.26.89,13.9,1,.24,0,.25-.22,0-.25-4.67-.63-9.43-.94-14.13-1.26-2.28-.15-4.57-.28-6.86-.33q-1.69,0-3.42,0a10.33,10.33,0,0,0-3.69.24c-.19.09-.07.21.07.26A11.91,11.91,0,0,0,27.2,646.68Z"/><path class="cls-1" d="M33.43,649.89l7,.17c4.51.1,9,.28,13.55.13.19,0,.14-.21,0-.22-4.56-.28-9.15-.32-13.73-.45l-6.75-.16a35.49,35.49,0,0,0-6.68,0c-.27,0-.11.23.08.26A49.43,49.43,0,0,0,33.43,649.89Z"/><path class="cls-1" d="M35.07,653.25l6.71,0c4.55,0,9.09.13,13.64.16.21,0,.24-.21,0-.22-4.53-.41-9.08-.43-13.62-.47l-6.71,0-3.47,0a15.15,15.15,0,0,0-3.16.07c-.31.06-.13.25.08.28A36.26,36.26,0,0,0,35.07,653.25Z"/><path class="cls-1" d="M38,655.85c2.27,0,4.54.12,6.82.22,4.53.19,9,.57,13.58.85.26,0,.27-.24,0-.28-4.66-.62-9.36-.92-14.05-1.15-2.27-.1-4.55-.17-6.82-.21-1.13,0-2.26,0-3.4,0a11.89,11.89,0,0,0-3.1.15c-.3.08-.15.25.08.29A44.93,44.93,0,0,0,38,655.85Z"/><path class="cls-1" d="M40.92,658.72c2.2,0,4.39,0,6.59.11,4.48.11,9,.3,13.45.39.22,0,.24-.22,0-.23-4.55-.36-9.12-.56-13.68-.69-2.27-.07-4.55-.12-6.83-.13a26.73,26.73,0,0,0-6,.15c-.28.07-.13.24.07.27A43.8,43.8,0,0,0,40.92,658.72Z"/><path class="cls-1" d="M40.83,660.91l3,.12,6.67.25c4.18.16,8.44.6,12.62.45.2,0,.12-.19,0-.21a111.8,111.8,0,0,0-12.81-.79l-6.41-.27-3-.13c-1.21-.05-2.6-.38-3.73,0-.21.07-.06.21.07.25A13.21,13.21,0,0,0,40.83,660.91Z"/><path class="cls-1" d="M65.61,663.85c.21,0,.15-.24,0-.25-4-.24-8-.43-12-.8-2-.18-3.91-.36-5.87-.52l-2.94-.21a7.39,7.39,0,0,0-3,0c-.21.08-.07.22.07.27a13.08,13.08,0,0,0,3.13.29l2.95.21c2,.16,4.07.35,6.11.53A78.73,78.73,0,0,0,65.61,663.85Z"/><path class="cls-1" d="M98.22,332.2s0-.05,0-.08c.22-2-.33-4.19-.31-6.24a.25.25,0,0,0-.11-.23.31.31,0,0,0-.23-.24c-.94-.19-1.89-.35-2.84-.5v0c-.07-.31-.32-.23-.45-.05l-2.39-.32c0-.14-.06-.29-.1-.44s-.22,0-.2.11,0,.2,0,.3l-2-.23c-.12,0-.14.25,0,.29a14.26,14.26,0,0,0,2.19.69l0,.25c-1-.07-2-.12-3-.12-.23,0-.25.72,0,.74,1,.11,2,.15,3.06.19,0,.29.05.59.07.88a12.62,12.62,0,0,0-1.25,3.33c0,.14.12.27.17.09A12.83,12.83,0,0,1,92,327.7h0c0,.21.18.27.3.16a3.89,3.89,0,0,0,.7.26s0,.09,0,.13c0,.21.24.45.43.21l0,0a11,11,0,0,0-.25,1.95c0,.2.19.21.21,0a10,10,0,0,1,.28-1.62,8.13,8.13,0,0,0,1.08,1.38c.15.14.18-.44.14-.52a7.15,7.15,0,0,0-.72-1.21l.43.09c0,.11,0,.21.06.32.06.31.32.47.51.15h0l0,.07c0,.27-.1.54-.13.8s.17.26.21.07.1-.41.15-.62l.11.11a.41.41,0,0,0,.18.39,9.46,9.46,0,0,0,.56,4.3c.12.28.26-.11.26-.24,0-1.2-.26-2.37-.28-3.58,0,.28.1.57.16.87a.45.45,0,0,0,.1.22,15.93,15.93,0,0,0,.34,3.46c0,.09.06.14.1.14a12.1,12.1,0,0,0,.25,1.94c.07.28.24.15.29-.05a9.61,9.61,0,0,0,.27,1.49c.08.28.26.16.29-.07A23.54,23.54,0,0,0,98,335c0-.15,0-.3,0-.45s.14-.1.16-.23,0-.47,0-.71c.13.79.24,1.58.31,2.37.11,1.28,0,2.59.18,3.86,0,.28.2.27.26,0C99.43,337.43,98.85,334.61,98.22,332.2Zm-5.72-4.75c.08-.17.16-.34.23-.51l.17.39v.19A2.57,2.57,0,0,0,92.5,327.45Zm.93-.17,0,0c0-.29,0-.58,0-.87h.07l.22.35A5.72,5.72,0,0,1,93.43,327.28Zm.53.56s0,0,0-.07l.15-.34.21.34.17.25C94.33,328,94.14,327.91,94,327.84Zm1.27-.77-.24-.33,0-.27h.24l.11.26C95.29,326.85,95.26,327,95.23,327.07ZM97.5,333c0-.47-.06-.94-.08-1.4,0-.88,0-1.76-.08-2.64h0c0,.49.07,1,.11,1.48s0,1.34.08,2Z"/><path class="cls-1" d="M100.35,349.51a18.61,18.61,0,0,0-2.68-.5,75.35,75.35,0,0,0-9.18-1.85c-1.91-.28-3.81-.53-5.72-.77L79.91,346a13,13,0,0,0-3.75-.4c-.14,0-.24.15-.07.23l.08,0a22.93,22.93,0,0,0-5.68.28c-.72.13-.78,2.15-.06,2.31.57.13,1.15.24,1.73.34,0,.05,0,.09.15.12a16.88,16.88,0,0,0,3.45.48c0,.2.13.35.3.29a5.55,5.55,0,0,1,1.64-.18l.36,0c0,.13.11.23.22.23l1.82,0,.26,0c-.27.12-.43.32.06.45,4.12,1.11,8.65,1.22,12.89,1.48.38,0,.6-.41.14-.5l-.36-.08.46.05a4.26,4.26,0,0,0,1.14.54,7.86,7.86,0,0,0,1.66.21c.21,0,.33-.21.39-.52.43,0,.85,0,1.28,0a.49.49,0,0,0,.39-.34l.52-.08c.43,0,.87,0,1.29.08.23.05.35-.35.35-.74C100.73,350,100.67,349.6,100.35,349.51Zm-12.85-2c1.32.18,2.65.37,4,.59-1.82-.17-3.65-.3-5.45-.54-.57-.11-1.14-.23-1.7-.36l-1-.23C84.67,347.15,86.09,347.32,87.5,347.51Z"/><path class="cls-1" d="M96.17,574.78c-.1,0-.13.16,0,.2,3.38,1.9,7.25,5.13,5.11,9.43-.92,1.86-2.67,2.92-4.09,4.35a14.7,14.7,0,0,0-2.54,4.35c-.08.17.12.6.27.33a35.69,35.69,0,0,1,1.75-3.36,17.14,17.14,0,0,1,2.6-2.58,8.17,8.17,0,0,0,2.88-4.83C102.62,578.92,99.26,576.13,96.17,574.78Z"/><path class="cls-1" d="M101.33,577c-.09,0-.11.17,0,.2,1.89.68,3.86,1.16,5.7,2,.65.28,1.66.68,2,1.37.53,1.21-1.83,2.22-2.58,2.61-2.35,1.23-4.7,2.31-6.62,4.19-1.54,1.51-3.59,3.09-3.71,5.42,0,.14.13.37.19.13a6.64,6.64,0,0,1,1.25-2.69c.48-.57,1.05-1.05,1.57-1.57a17.84,17.84,0,0,1,3.68-3c1.4-.83,2.89-1.49,4.32-2.27a4.86,4.86,0,0,0,2.2-1.8C110.75,578.49,103,577.39,101.33,577Z"/><path class="cls-1" d="M105.48,581.09a2,2,0,0,0-1.57-1.42c-.1,0-.11.2,0,.24.45.27,1.11.67,1.24,1.22s-.41.94-.83,1.2c-.33-.41-.26-.92-.53-1.39-.07-.13-.16.11-.17.15a2.19,2.19,0,0,0,.54,1.82.14.14,0,0,0,.19,0A2,2,0,0,0,105.48,581.09Z"/><path class="cls-1" d="M115.89,579.11c-1-2.18-3.64-3-5.78-3.58a49.94,49.94,0,0,0-7.9-1c-.08,0-.1.18,0,.2,2.14.38,4.3.62,6.42,1.06s4.88,1.05,6.41,2.81c2.34,2.7-.69,5.08-3,6.3-2.57,1.37-5.25,2.53-7.73,4.08-.1.07,0,.38.08.31,3-1.79,6.41-2.85,9.28-4.81C115.5,583.24,116.91,581.33,115.89,579.11Z"/><path class="cls-1" d="M186.29,558.63c-2.12-1.25-4.79,0-6.89.71-.85.28-2.06.74-2.92.27-1.44-.78-1-3.6-.91-4.87,0-.14-.14-.15-.16,0-.29,2.08-.74,6.11,2.49,5.69,2.81-.38,5.41-2.37,8.32-1.28C186.4,559.21,186.42,558.71,186.29,558.63Z"/><path class="cls-1" d="M82.83,115.83c-1.46.07-2.9.09-4.36.1-.08,0-.11.18,0,.21a9.19,9.19,0,0,0,4.39.2C83,116.31,83,115.83,82.83,115.83Z"/><path class="cls-1" d="M84.74,120.47a14.84,14.84,0,0,0-2.82.23c-.12,0-.15.27,0,.28a16.72,16.72,0,0,0,2.83,0C84.89,121,84.9,120.48,84.74,120.47Z"/><path class="cls-1" d="M84.71,121.22a10.22,10.22,0,0,1-2.14.13c-.11,0-.12.21,0,.24a4.75,4.75,0,0,0,2.15.17C84.86,121.71,84.86,121.2,84.71,121.22Z"/><path class="cls-1" d="M85.19,123a1.3,1.3,0,0,0-.49-.32c.08-.07.07-.3.06-.37a.64.64,0,0,0-.19-.25.93.93,0,0,0-.2-.08,1.86,1.86,0,0,0-.34-.06,3.24,3.24,0,0,0-.76,0c-.17,0-.18.48,0,.47a2.51,2.51,0,0,1,.67,0,2.67,2.67,0,0,1,.4.13,2.75,2.75,0,0,0-.86,0c-.23,0-.21.59.06.55a1.75,1.75,0,0,1,1,.1,6.08,6.08,0,0,0,.61.33c.06,0,.1-.11.11-.14l0-.1A.36.36,0,0,0,85.19,123Z"/><path class="cls-1" d="M84.21,123.58c-.19-.06-.25.32-.1.39a3.62,3.62,0,0,1,.68.41c.11.07.14-.19.14-.23C85,123.78,84.5,123.68,84.21,123.58Z"/><path class="cls-1" d="M58.59,53.53a.55.55,0,0,0-.45.19,2,2,0,0,0-.13-.67c-.13-.36-.41,0-.34.26a10.09,10.09,0,0,1,0,1.65,1.2,1.2,0,0,0,1,1c.18.06.3-.08.34-.24C59.12,55.27,59.48,53.62,58.59,53.53Zm-.41,1.23a.1.1,0,0,0,.13,0c0-.25,0-.49,0-.74,0,.09.07.17.11.25v.1s0,0,.1,0,.11.52,0,.82A.64.64,0,0,1,58.18,54.76Z"/><path class="cls-1" d="M58.47,54.34s0,.06,0,0Z"/><path class="cls-1" d="M88.94,150.79l.1-2L116.52,146h0c.22,0,1.33.32,1.56,1a.74.74,0,0,1-.13.75c-.6.8-18.23,2.28-28.69,3.1l-.37,0Zm.72-1.38,0,.68c10.75-.84,26.7-2.26,27.88-2.84,0-.07,0-.1,0-.11-.07-.19-.6-.43-1-.54l-26.82,2.81Z"/><path class="cls-1" d="M90.69,175l.09-2,27.49-2.87h0c.22.05,1.32.32,1.56,1a.79.79,0,0,1-.14.76c-.59.79-18.23,2.28-28.69,3.09l-.36,0Zm.71-1.39,0,.69c10.75-.84,26.7-2.26,27.88-2.84,0-.07,0-.1,0-.11-.06-.19-.59-.43-1-.54l-26.83,2.8Z"/><path class="cls-1" d="M92.77,197.67l.1-2,27.48-2.87h.05c.22,0,1.33.32,1.56.95a.76.76,0,0,1-.14.76c-.59.8-18.23,2.28-28.69,3.09l-.36,0Zm.71-1.39,0,.69c10.75-.84,26.7-2.26,27.88-2.84a.16.16,0,0,0,0-.11c-.07-.19-.6-.43-1-.54l-26.83,2.8Z"/><path class="cls-1" d="M95,218.9l.1-2,27.48-2.87h.06c.21.05,1.32.32,1.56,1a.79.79,0,0,1-.14.76c-.59.79-18.23,2.28-28.69,3.09l-.37,0Zm.72-1.39,0,.69c10.76-.84,26.71-2.26,27.89-2.84,0-.07,0-.1,0-.11-.07-.19-.59-.43-1-.54l-26.83,2.8Z"/><path class="cls-1" d="M96.66,238.79l.1-2L124.24,234h.05c.22,0,1.33.32,1.56,1a.73.73,0,0,1-.14.75c-.59.8-18.22,2.28-28.68,3.1l-.37,0Zm.71-1.38,0,.69c10.75-.85,26.7-2.27,27.88-2.85a.16.16,0,0,0,0-.11c-.07-.19-.6-.43-1-.54l-26.83,2.81Z"/><path class="cls-1" d="M98.19,257.88l.1-2L125.77,253h0c.22.05,1.33.33,1.56,1a.74.74,0,0,1-.13.75c-.6.8-18.23,2.28-28.69,3.1l-.37,0Zm.72-1.39,0,.69c10.75-.85,26.7-2.27,27.88-2.85a.11.11,0,0,0,0-.11c-.07-.19-.6-.43-1-.54l-26.82,2.81Z"/><path class="cls-1" d="M99.53,275.94l.07-2.06,28.59-3.66h.05c.23,0,1.37.31,1.63,1a.78.78,0,0,1-.12.79c-.62.89-21.08,3-29.85,3.92l-.37,0Zm.69-1.49,0,.78c11.3-1.14,28.1-3,29.07-3.66a.14.14,0,0,0,0-.13c-.09-.23-.68-.47-1.11-.57l-27.94,3.58Z"/><path class="cls-1" d="M100.8,292.14l0-1.95,28.8-3.83h0c.33.05,1.44.28,1.68.9a.74.74,0,0,1-.12.74c-.61.82-21.23,3.13-30.07,4.09l-.36,0Zm.66-1.38v.66c11.31-1.23,28.09-3.22,29.28-3.83a.09.09,0,0,0,0-.08c-.07-.19-.65-.41-1.14-.5l-28.15,3.75Z"/><path class="cls-1" d="M102.42,307.55l0-2,29.54-4H132c.24,0,1.45.28,1.72.92a.78.78,0,0,1-.13.77c-.62.87-21.78,3.31-30.84,4.32l-.36,0Zm.66-1.45v.72c11.7-1.3,29.1-3.43,30.08-4.05a.16.16,0,0,0,0-.1c-.08-.2-.68-.44-1.18-.53l-28.89,4Z"/><path class="cls-1" d="M102.92,323.4l0-2.11L133.33,317h0c.24,0,1.47.29,1.75,1a.78.78,0,0,1-.12.8c-.64.92-22.4,3.54-31.72,4.62l-.37,0Zm.66-1.55v.83c12-1.4,30-3.68,31-4.35a.19.19,0,0,0,0-.15c-.09-.24-.75-.47-1.21-.57l-29.74,4.24Z"/><path class="cls-1" d="M104.39,337.33l0-2.19,29.88-4.61h.05c.24,0,1.42.31,1.71,1a.85.85,0,0,1-.1.85c-.63,1-22,3.75-31.19,4.9l-.37.05Zm.66-1.64v.91c11.83-1.49,29.43-3.91,30.41-4.62a.2.2,0,0,0,0-.2c-.11-.26-.75-.5-1.19-.59l-29.22,4.5Z"/><path class="cls-1" d="M105.65,351.16l0-2.19,29.79-5.37h.06c.23,0,1.41.27,1.71.94a.9.9,0,0,1-.1.86c-.62,1-22,4.31-31.11,5.7l-.37.05Zm.66-1.65v.9c11.81-1.79,29.36-4.66,30.33-5.39a.23.23,0,0,0,0-.2c-.11-.26-.75-.48-1.18-.56l-29.15,5.25Z"/><path class="cls-1" d="M106.38,363.08l0-2.2,29.79-5.36h.05c.23,0,1.41.27,1.71,1a.85.85,0,0,1-.09.85c-.63,1-22,4.31-31.11,5.7l-.37.06Zm.66-1.66v.91c11.8-1.8,29.36-4.67,30.32-5.4a.21.21,0,0,0,0-.2c-.12-.26-.75-.48-1.18-.56L107,361.42Z"/><path class="cls-1" d="M107.18,374.72l0-2.23.26,0L138.21,367h.06c.24,0,1.47.28,1.78,1a.88.88,0,0,1-.11.86c-.65,1-22.86,4.4-32.38,5.82l-.38.05Zm.67-1.69V374c12.3-1.83,30.61-4.77,31.6-5.51a.23.23,0,0,0,0-.21c-.12-.27-.79-.5-1.24-.58L107.85,373Z"/><path class="cls-1" d="M108.33,385.76l0-2.12L139.22,378h.05c.25,0,1.51.24,1.81.9a.81.81,0,0,1-.11.82c-.63.95-22.78,4.48-32.27,6l-.37.06Zm.63-1.58V385c12.27-1.92,30.53-5,31.51-5.67a.16.16,0,0,0,0-.15c-.11-.24-.78-.45-1.26-.52L109,384.18Z"/><path class="cls-1" d="M108.85,396.14V394l30.9-5.63h0c.25,0,1.51.23,1.81.9a.8.8,0,0,1-.1.81c-.64.95-22.79,4.49-32.28,6l-.37.06Zm.63-1.58v.83c12.27-1.91,30.53-5,31.51-5.67a.16.16,0,0,0,0-.15c-.1-.23-.78-.44-1.25-.52l-30.28,5.51Z"/><path class="cls-1" d="M110,406l0-2.12,30.91-5.62h0c.25,0,1.5.23,1.8.9a.78.78,0,0,1-.1.81c-.63.95-22.78,4.49-32.27,6L110,406Zm.63-1.58v.83c12.28-1.92,30.54-5,31.51-5.67a.14.14,0,0,0,0-.15c-.11-.23-.78-.44-1.26-.52l-30.27,5.51Z"/><path class="cls-1" d="M110.75,415.54l0-2,.27,0,31.26-5.72h0c.36,0,1.58.22,1.87.85a.76.76,0,0,1-.11.77c-.64.9-23.24,4.57-32.93,6.11l-.37.06Zm.61-1.48,0,.73c12.54-2,31.19-5.15,32.18-5.83,0,0,0-.06,0-.09-.09-.2-.75-.4-1.31-.47l-30.9,5.66Z"/><path class="cls-1" d="M111.25,424l0-2.1,32.37-6.08h.05c.26,0,1.6.21,1.91.88a.82.82,0,0,1-.11.8c-.65.94-23.86,4.81-33.81,6.43l-.36.06Zm.61-1.56v.81c12.89-2.11,32.06-5.43,33-6.15a.19.19,0,0,0,0-.13c-.1-.21-.78-.42-1.35-.49l-31.73,6Z"/></g></g></svg>